<svg width="48" height="48" viewBox="0 0 48 48" fill="none" xmlns="http://www.w3.org/2000/svg">
<g clip-path="url(#clip0_1_89)">
<path d="M45.7446 17.992C46.1597 16.7389 46.0602 15.3722 45.4681 14.1923C44.8759 13.0124 43.8396 12.1159 42.5868 11.6997L16.5119 2.94613C15.8912 2.73549 15.2349 2.65063 14.5811 2.69647C13.9273 2.74232 13.2891 2.91797 12.704 3.21316" fill="white"/>
<path d="M12.704 3.2132C11.5232 3.80411 10.6254 4.83971 10.2079 6.09235L2.25542 29.9963C1.84358 31.2495 1.94454 32.6149 2.53624 33.7939C3.12793 34.9729 4.16226 35.8699 5.41321 36.2886L31.4998 45.0422C32.1208 45.2503 32.7769 45.3338 33.4303 45.288C34.0837 45.2422 34.7217 45.0679 35.3077 44.7752C35.8924 44.4846 36.4133 44.0802 36.8399 43.5859C37.2665 43.0915 37.5902 42.517 37.7921 41.896L45.7562 17.9921" fill="white"/>
<path d="M25.4628 26.1768C24.0273 27.7854 22.2338 29.0341 20.2269 29.8221L19.066 30.2749V19.1994L20.2269 19.6522C22.2364 20.4361 24.0337 21.6808 25.4744 23.286C26.3862 21.7943 26.9611 20.1215 27.159 18.3844C27.3569 16.6474 27.173 14.8881 26.6201 13.2295C26.0673 11.571 25.1588 10.0532 23.9583 8.78228C22.7577 7.51138 21.2941 6.51806 19.6697 5.87175L15.8617 4.57149C15.4585 4.43917 15.0331 4.38766 14.61 4.41993C14.1868 4.4522 13.7742 4.56762 13.3957 4.75957C13.0172 4.95152 12.6802 5.21623 12.4042 5.53856C12.1281 5.86088 11.9183 6.23448 11.7868 6.63798L3.81109 30.5652C3.55069 31.3889 3.62518 32.282 4.01847 33.0512C4.41176 33.8204 5.09218 34.4037 5.91241 34.6749L24.0116 40.7119C25.8168 38.7844 26.9352 36.3149 27.1934 33.6867C27.4516 31.0586 26.8351 28.4187 25.4396 26.1768H25.4628ZM14.991 18.5377V30.9599H13.1916V18.5725L14.991 18.5377Z" fill="#2293C8"/>
<path d="M24.418 24.7256C23.3986 23.535 22.1613 22.5499 20.7726 21.8232V27.6279C22.1672 26.8953 23.4055 25.8976 24.418 24.6907" fill="#E43D30"/>
<path d="M42.018 13.2902L25.4048 7.74084C27.4916 10.0228 28.7426 12.9452 28.9535 16.0303C29.1644 19.1154 28.3226 22.1808 26.5657 24.7255C28.2729 27.1943 29.1205 30.156 28.9778 33.1541C28.8351 36.1522 27.7101 39.0201 25.7763 41.3155L32.0222 43.3936C32.4253 43.5275 32.851 43.5802 33.2747 43.5487C33.6984 43.5172 34.1116 43.402 34.4904 43.2099C34.8693 43.0177 35.2064 42.7524 35.4822 42.4293C35.7579 42.1061 35.9669 41.7315 36.0971 41.3271L44.1077 17.4116C44.3718 16.5894 44.3003 15.6962 43.9089 14.9265C43.5175 14.1567 42.8379 13.5728 42.018 13.3018V13.2902ZM37.618 30.9366H35.3657L30.7219 24.7255L35.3657 18.5261H37.6876L33.0438 24.7488L37.618 30.9366Z" fill="#215C9C"/>
</g>
<defs>
<clipPath id="clip0_1_89">
<rect width="44" height="42.6185" fill="white" transform="translate(2.00002 2.69073)"/>
</clipPath>
</defs>
</svg>
