<svg width="47" height="19" viewBox="0 0 47 19" fill="none" xmlns="http://www.w3.org/2000/svg">
<rect width="47" height="19" rx="9.5" fill="#C5C5C5"/>
<path d="M7.30141 9.74663V10.7096H14.8344V9.74663H7.30141ZM10.4604 8.68463V9.95363H11.6574V8.68463H10.4604ZM8.13841 11.2766V12.2216H12.7284V13.9676H13.9254V11.2766H8.13841ZM8.26441 5.84063V9.06263H13.8804V5.84063H12.6924V6.57863H9.44341V5.84063H8.26441ZM9.44341 7.46963H12.6924V8.12663H9.44341V7.46963ZM17.4527 6.27263V7.48763C17.4527 9.03563 16.8137 10.6376 15.4097 11.2946L16.1297 12.2576C17.7047 11.4836 18.4247 9.54863 18.4247 7.48763V6.27263H17.4527ZM17.6957 6.27263V7.48763C17.6957 9.48563 18.3527 11.3396 19.8557 12.1046L20.5757 11.1506C19.2437 10.5026 18.6497 8.98163 18.6497 7.48763V6.27263H17.6957ZM20.9087 5.63363V13.9676H22.1147V5.63363H20.9087ZM21.8447 8.83763V9.83663H23.3207V8.83763H21.8447ZM29.206 5.63363V13.9676H30.394V5.63363H29.206ZM30.124 8.88263V9.88163H31.6V8.88263H30.124ZM23.824 6.86663V7.82063H28.675V6.86663H23.824ZM26.263 8.28863C25.048 8.28863 24.148 9.11663 24.148 10.2776C24.148 11.4386 25.048 12.2666 26.263 12.2666C27.478 12.2666 28.378 11.4386 28.378 10.2776C28.378 9.11663 27.478 8.28863 26.263 8.28863ZM26.263 9.26063C26.83 9.26063 27.235 9.63863 27.235 10.2776C27.235 10.9166 26.83 11.2946 26.263 11.2946C25.696 11.2946 25.291 10.9166 25.291 10.2776C25.291 9.63863 25.696 9.26063 26.263 9.26063ZM25.66 5.76863V7.22663H26.857V5.76863H25.66ZM37.8813 5.63363V13.9676H39.0873V5.63363H37.8813ZM35.4243 6.49763V6.71363C35.4243 8.94563 34.5603 10.4576 32.1663 11.6096L32.7873 12.5636C35.7483 11.1326 36.6123 9.04463 36.6123 6.49763H35.4243ZM32.6073 6.49763V7.44263H35.9913V6.49763H32.6073Z" fill="white"/>
</svg>
