<svg width="48" height="48" viewBox="0 0 48 48" fill="none" xmlns="http://www.w3.org/2000/svg">
<g clip-path="url(#clip0_1_96)">
<path fill-rule="evenodd" clip-rule="evenodd" d="M18.4029 44.5048C17.4238 45.1684 16.2794 45.5464 15.0977 45.5967C13.7215 45.5717 12.4054 45.0278 11.4132 44.0738C10.4209 43.1198 9.82562 41.8263 9.74648 40.4521L15.2944 37.1567L23.9016 41.0127L18.4029 44.5048Z" fill="#72A3B6"/>
<path fill-rule="evenodd" clip-rule="evenodd" d="M21.6785 30.3201L17.5667 28.5102C15.7272 27.7035 13.996 27.0051 13.996 24.9886C13.9688 24.5957 14.0268 24.2016 14.166 23.8332C14.3052 23.4647 14.5224 23.1307 14.8026 22.854L23.4885 26.6707L21.3539 27.9298C20.7539 28.2839 20.3702 28.6085 20.3702 29.0709C20.3702 29.5332 20.9309 29.9857 21.708 30.3201H21.6785Z" fill="#96CE8E"/>
<path fill-rule="evenodd" clip-rule="evenodd" d="M25.7116 11.345L21.4916 13.9124C21.1178 14.1386 20.6063 14.4927 20.6063 15.0633C20.6063 15.6338 21.59 16.1847 22.4458 16.5978L17.1831 14.2763C15.6387 13.5877 14.0747 12.8205 14.0747 10.9417C14.0641 10.2407 14.2702 9.55366 14.6649 8.9743L26.0755 2.00983C26.8742 2.44893 27.5424 3.09157 28.0124 3.87248C28.4823 4.65339 28.7372 5.54478 28.7511 6.45608C28.7581 7.47872 28.4766 8.4826 27.9389 9.35254C27.4013 10.2225 26.6293 10.9233 25.7116 11.3745V11.345Z" fill="#72A3B6"/>
<path fill-rule="evenodd" clip-rule="evenodd" d="M34.6729 19.5686L33.6302 20.1686L24.905 16.3224L35.0369 10.2137C35.8379 10.6553 36.5091 11.2991 36.9838 12.081C37.4584 12.8628 37.7198 13.7554 37.742 14.6698C37.7582 15.6981 37.4772 16.7092 36.9328 17.5816C36.3884 18.4541 35.6037 19.1508 34.6729 19.5882V19.5686Z" fill="#96CE8E"/>
<path fill-rule="evenodd" clip-rule="evenodd" d="M27.3051 26.9855L32.4695 29.2479C34.4368 30.1136 34.9975 31.1366 34.9975 32.4154C34.9805 32.7939 34.8841 33.1646 34.7147 33.5036C34.5452 33.8425 34.3064 34.142 34.0138 34.3827L25.3476 30.5267L26.8035 29.7201C28.0429 29.0217 28.4659 28.6184 28.4659 28.1659C28.4659 27.7134 28.161 27.3888 27.315 26.9953L27.3051 26.9855Z" fill="#72A3B6"/>
<path fill-rule="evenodd" clip-rule="evenodd" d="M36.5222 46C34.2272 44.3453 31.7441 42.9684 29.125 41.8981L16.0027 36.0648C12.6975 34.5893 10.5039 32.6416 10.5039 29.3365C10.5039 26.0313 12.0581 24.5755 14.0747 23.2967L14.8026 22.854C14.5223 23.1307 14.3052 23.4647 14.166 23.8332C14.0268 24.2016 13.9688 24.5957 13.996 24.9886C13.996 27.0051 15.7272 27.7035 17.5667 28.5102L32.8334 35.2385C35.5091 36.3894 37.9289 38.3568 37.9289 41.6817C37.9619 43.2388 37.466 44.761 36.5222 46Z" fill="#4C9847"/>
<path fill-rule="evenodd" clip-rule="evenodd" d="M34.9484 33.7728L33.9647 34.3729C34.2573 34.1321 34.496 33.8326 34.6655 33.4937C34.8349 33.1548 34.9313 32.784 34.9484 32.4055C34.9484 31.1267 34.3483 30.1037 32.4203 29.2381L16.0912 22.0671C12.786 20.5817 10.7302 18.7029 10.7302 15.4174C10.7193 14.0867 11.0765 12.7789 11.7622 11.6384C12.4478 10.4979 13.4354 9.56915 14.6157 8.95459C14.221 9.53395 14.0149 10.221 14.0255 10.9219C14.0255 12.8008 15.5895 13.5681 17.1339 14.2566L33.0007 21.2604C35.9025 22.5491 38.2437 24.4967 38.2437 27.9986C38.2773 29.1741 37.9819 30.3356 37.391 31.3523C36.8001 32.369 35.9371 33.2005 34.8991 33.7532L34.9484 33.7728Z" fill="#296085"/>
</g>
<defs>
<clipPath id="clip0_1_96">
<rect width="28.5661" height="44" fill="white" transform="translate(9.71696 2)"/>
</clipPath>
</defs>
</svg>
