<svg width="48" height="48" viewBox="0 0 48 48" fill="none" xmlns="http://www.w3.org/2000/svg">
<g clip-path="url(#clip0_1_198)">
<path d="M23.0187 2.31657C18.7296 2.51108 14.5945 3.97333 11.1366 6.51832C7.67865 9.06331 5.05319 12.5767 3.59236 16.6141C2.13153 20.6514 1.90093 25.0314 2.92976 29.1998C3.95859 33.3682 6.20064 37.1378 9.37224 40.0319C12.5438 42.9259 16.5025 44.8142 20.7475 45.458C24.9924 46.1018 29.333 45.4721 33.2201 43.6487C37.1071 41.8252 40.366 38.8898 42.5845 35.2138C44.8031 31.5379 45.8815 27.2866 45.6834 22.9976C45.5561 20.1496 44.8686 17.3546 43.6604 14.7725C42.4522 12.1903 40.7468 9.87164 38.6419 7.94897C36.5369 6.02631 34.0737 4.53738 31.393 3.56731C28.7122 2.59725 25.8666 2.16506 23.0187 2.29548V2.31657Z" fill="url(#paint0_radial_1_198)"/>
<path d="M23.0081 2.02168C18.661 2.2182 14.4698 3.69946 10.9647 6.27811C7.45949 8.85676 4.79778 12.417 3.31613 16.5085C1.83449 20.6 1.59949 25.039 2.64085 29.264C3.6822 33.4891 5.95313 37.3105 9.16644 40.2448C12.3797 43.1791 16.391 45.0946 20.6931 45.7491C24.9951 46.4035 29.3946 45.7674 33.3351 43.9212C37.2756 42.0751 40.58 39.1019 42.8306 35.3776C45.0812 31.6533 46.1768 27.3452 45.9788 22.9982C45.7133 17.1699 43.1447 11.6854 38.8374 7.75011C34.5301 3.81478 28.8366 1.75056 23.0081 2.01112V2.02168ZM25.5826 23.3675C29.4973 26.9761 31.6392 28.9176 31.6392 28.9176C38.5294 34.6576 36.1764 39.9018 33.5385 41.7272C31.4185 43.1411 28.9327 43.9074 26.3846 43.9325C26.2964 43.9458 26.2064 43.9413 26.12 43.9191C26.0336 43.897 25.9525 43.8576 25.8816 43.8035C25.8107 43.7493 25.7515 43.6814 25.7073 43.6039C25.6632 43.5264 25.6352 43.4408 25.6248 43.3522C25.6248 42.8562 26.3318 42.7296 26.3318 42.7296C32.8421 41.4529 30.9323 37.1795 28.632 35.0059C27.6719 34.0879 18.6081 26.2692 18.6081 26.2692C9.97689 18.8831 10.6627 13.0269 10.6627 13.0269C11.0743 5.88354 17.3313 4.11088 22.069 4.5224C22.6177 4.57515 22.9237 4.91282 22.8287 5.36654C22.7337 5.82026 21.9951 5.91521 21.9951 5.91521C20.6419 5.88006 19.3031 6.20021 18.1121 6.84375C14.303 9.40778 15.432 13.7761 20.5179 18.6298C21.151 19.2418 21.8368 19.8855 22.5332 20.5397C22.5332 20.5397 23.5567 21.4366 25.5826 23.3675ZM22.6282 41.8327C22.6282 42.5397 20.9716 42.8351 19.0407 42.6452C16.1534 42.4398 13.4036 41.3325 11.1798 39.4797C9.03968 37.5528 7.49172 35.057 6.71647 32.2835C5.99897 29.7934 5.66132 26.8917 6.8853 27.1133C7.24405 27.1871 7.87713 28.791 8.55243 29.9517C9.00434 30.8215 9.62489 31.5927 10.3779 32.2202C10.6206 32.3996 11.433 30.5531 12.657 29.5085C13.3534 28.9282 14.1236 28.7277 14.2503 30.4581C14.398 32.5685 14.0182 35.1008 14.6301 35.1008C15.2421 35.1008 16.5189 34.6577 19.3783 34.415C20.4335 34.3306 21.0666 34.531 20.0431 35.9766C19.295 37.1155 18.3393 38.1035 17.2258 38.8888C19.6632 41.1469 22.5755 40.8725 22.6282 41.8327ZM24.5486 19.6745C24.3538 18.7692 24.3252 17.836 24.4642 16.9205C24.7526 15.0485 25.3218 13.2308 26.1524 11.5286C27.2076 9.02793 24.7385 7.56125 25.0973 6.64327C25.646 5.39819 27.3764 6.98091 29.3179 7.09698C30.9745 7.19194 31.9769 7.09699 33.2642 7.27637C34.9735 7.5085 37.0205 8.07829 37.928 9.15455C38.8354 10.2308 37.4954 11.3282 35.9548 10.579C34.8364 10.0303 33.4225 10.368 34.2455 11.5392C34.8648 12.3162 35.7611 12.823 36.7462 12.9531C39.5424 13.6917 39.6057 16.3718 37.7064 17.7646C35.5433 19.3368 33.3697 18.6932 32.4939 15.591C32.0508 14.0399 30.9534 13.2591 29.8349 13.6917C28.7165 14.1243 29.3812 16.1713 30.2359 18.0495C31.9241 22.3756 27.7141 22.2701 27.2287 22.1752C26.5938 22.0445 26.0074 21.7408 25.5344 21.2976C25.0614 20.8544 24.7202 20.289 24.5486 19.6639V19.6745Z" fill="url(#paint1_radial_1_198)"/>
</g>
<defs>
<radialGradient id="paint0_radial_1_198" cx="0" cy="0" r="1" gradientUnits="userSpaceOnUse" gradientTransform="translate(27.3885 16.8942) scale(20.6219 20.6219)">
<stop stop-color="white"/>
<stop offset="1" stop-color="#CF9C51"/>
</radialGradient>
<radialGradient id="paint1_radial_1_198" cx="0" cy="0" r="1" gradientUnits="userSpaceOnUse" gradientTransform="translate(22.2834 10.6161) scale(46.193 46.1931)">
<stop stop-color="#00C0F3"/>
<stop offset="0.22" stop-color="#0097D6"/>
<stop offset="0.28" stop-color="#0086CA"/>
<stop offset="0.37" stop-color="#0074BD"/>
<stop offset="0.46" stop-color="#0069B5"/>
<stop offset="0.57" stop-color="#0066B3"/>
</radialGradient>
<clipPath id="clip0_1_198">
<rect width="44" height="44" fill="white" transform="translate(2 2)"/>
</clipPath>
</defs>
</svg>
