<svg width="48" height="48" viewBox="0 0 48 48" fill="none" xmlns="http://www.w3.org/2000/svg">
<path d="M27.0312 4.82983C36.5523 4.93221 44.7425 12.0986 45.8686 21.7733C47.0972 32.3181 39.5724 41.8392 28.9764 43.0165C28.2598 43.1189 27.4919 43.1701 26.7753 43.1701H26.5705C19.916 43.0677 13.9781 39.1774 10.8556 33.2395L2 38.3584C2 29.1956 5.94152 14.1462 16.8959 7.59402C16.9471 7.59402 16.9983 7.54282 17.0495 7.54282C17.1006 7.49164 17.1518 7.49165 17.203 7.44046C19.4041 6.16074 21.9124 5.29053 24.6254 4.98339C25.342 4.88102 26.1098 4.82983 26.8265 4.82983H27.0312Z" fill="#0064FF"/>
</svg>
