<svg width="48" height="48" viewBox="0 0 48 48" fill="none" xmlns="http://www.w3.org/2000/svg">
<g clip-path="url(#clip0_1_234)">
<path d="M2.00467 32.6357C2.00467 39.9877 6.50923 46.0047 23.5659 46.0047H24.4388C41.5001 46.0047 46 39.9877 46 32.6357V15.3643C46 8.00763 41.4954 1.99066 24.4388 1.99066H23.5659C6.50456 2 2.00467 8.01697 2.00467 15.3643V32.6357Z" fill="url(#paint0_linear_1_234)"/>
<path d="M24.4341 46C25.6618 46 26.8194 45.9673 27.9211 45.9066V38.4613C31.0439 38.4379 35.2311 37.1869 37.0982 33.1491C39.3108 28.3598 37.1309 24.6955 35.0163 22.8797C36.342 21.2226 37.1683 18.1791 36.0433 14.9675C34.1294 9.50603 28.6913 9.22128 26.8428 9.21661H24.4108V45.9813L24.4341 46ZM27.9211 12.979H28.3879C29.6882 13.054 30.9108 13.623 31.8054 14.5697C32.7 15.5164 33.1991 16.7692 33.2005 18.0717C33.2005 21.6007 29.8769 23.2765 29.5315 23.3932C29.6856 23.3932 34.2835 24.7935 34.2835 29.0694C34.2835 32.3603 31.3053 34.7456 27.9117 34.7456L27.9211 12.979Z" fill="white"/>
<path d="M17.1101 23.1224C16.0738 22.2262 14.3374 20.373 14.4167 18.0624C14.4867 15.9712 15.481 14.3561 17.1521 13.6279C18.6459 12.9743 20.457 12.965 21.5633 12.965H21.8201V9.23065H21.6287C20.2003 9.23065 17.8383 9.23065 15.6911 10.1642C12.6429 11.4946 10.7571 14.4261 10.6404 17.9971C10.5423 20.8585 11.9521 23.6966 14.6128 25.9886C17.1428 28.1732 18.4311 29.4382 17.7963 32.1782C17.2642 34.4795 13.6792 37.5651 12.5309 38.3959H17.7076C18.9493 37.4624 20.9752 35.1564 21.4746 32.9625C22.651 27.9024 19.5795 25.251 17.1101 23.1224Z" fill="white"/>
</g>
<defs>
<linearGradient id="paint0_linear_1_234" x1="24.0794" y1="17.6082" x2="24.0794" y2="45.7559" gradientUnits="userSpaceOnUse">
<stop stop-color="#92C83E"/>
<stop offset="0.6" stop-color="#009D54"/>
<stop offset="1" stop-color="#007360"/>
</linearGradient>
<clipPath id="clip0_1_234">
<rect width="44" height="44" fill="white" transform="translate(2 2)"/>
</clipPath>
</defs>
</svg>
