<svg width="48" height="48" viewBox="0 0 48 48" fill="none" xmlns="http://www.w3.org/2000/svg">
<g clip-path="url(#clip0_1_188)">
<path d="M43.3403 19.6677H44.474C44.5098 19.6677 44.5441 19.6535 44.5694 19.6282C44.5948 19.6029 44.609 19.5685 44.609 19.5327V17.3953C44.609 17.3776 44.6055 17.3602 44.5987 17.344C44.5919 17.3277 44.5819 17.313 44.5693 17.3007C44.5567 17.2883 44.5418 17.2786 44.5255 17.2721C44.5091 17.2656 44.4916 17.2624 44.474 17.2628H42.8817C41.0398 17.2628 40.064 17.8513 39.5061 19.1022L36.0439 27.5832C35.9742 27.8169 35.8258 28.0193 35.6237 28.1558C35.4216 28.2924 35.1785 28.3547 34.9357 28.3322V17.3953C34.9357 17.3776 34.9322 17.3602 34.9253 17.344C34.9185 17.3277 34.9085 17.313 34.896 17.3007C34.8834 17.2883 34.8685 17.2786 34.8521 17.2721C34.8358 17.2656 34.8183 17.2624 34.8006 17.2628H32.253C32.2354 17.2624 32.2179 17.2656 32.2015 17.2721C32.1852 17.2786 32.1703 17.2883 32.1577 17.3007C32.1451 17.313 32.1351 17.3277 32.1283 17.344C32.1215 17.3602 32.118 17.3776 32.118 17.3953V30.5028C32.1187 30.5652 32.1439 30.6248 32.1883 30.6687C32.2326 30.7126 32.2925 30.7372 32.3549 30.7372H35.2108C37.0502 30.7372 37.8935 30.1487 38.4488 28.8978L41.8678 20.5212C42.1429 19.9276 42.5378 19.6677 43.3403 19.6677Z" fill="#D71920"/>
<path d="M12.2388 24.0013C13.2579 23.5758 14.1037 22.6205 14.1037 21.0409C14.1037 18.6895 12.086 17.2628 9.65298 17.2628H2.1324C2.09726 17.2628 2.06357 17.2768 2.03872 17.3016C2.01388 17.3265 1.99992 17.3602 1.99992 17.3953V19.5328C1.99958 19.5504 2.00276 19.5679 2.00926 19.5842C2.01577 19.6006 2.02548 19.6155 2.03781 19.6281C2.05015 19.6406 2.06487 19.6506 2.08111 19.6574C2.09735 19.6643 2.11479 19.6678 2.1324 19.6678H9.13327C10.2619 19.6678 11.0262 20.3582 11.0262 21.1963C11.0262 22.0345 10.2619 22.7377 9.13327 22.7377H4.973V21.1556C4.97335 21.1378 4.97009 21.12 4.96343 21.1035C4.95676 21.087 4.94683 21.0719 4.93422 21.0593C4.92162 21.0467 4.90659 21.0368 4.89005 21.0301C4.87351 21.0235 4.8558 21.0202 4.83797 21.0206H2.1324C2.11479 21.0206 2.09735 21.0241 2.08111 21.0309C2.06487 21.0377 2.05015 21.0477 2.03781 21.0603C2.02548 21.0728 2.01577 21.0877 2.00926 21.1041C2.00276 21.1205 1.99958 21.138 1.99992 21.1556V30.5996C1.99992 30.6348 2.01388 30.6685 2.03872 30.6933C2.06357 30.7181 2.09726 30.7321 2.1324 30.7321H9.54598C12.3178 30.7321 14.3024 29.4405 14.3024 26.8037C14.3081 26.1761 14.11 25.5637 13.7379 25.0584C13.3658 24.5531 12.8397 24.1821 12.2388 24.0013ZM9.27848 28.3908H4.973V25.2318H9.27848C10.4351 25.2318 11.2198 25.94 11.2198 26.8113C11.2198 27.6826 10.4351 28.3908 9.27848 28.3908Z" fill="#D71920"/>
<path d="M45.9745 30.5819L41.6104 25.0026C41.6087 24.9994 41.6061 24.9967 41.603 24.9949C41.5998 24.993 41.5963 24.9921 41.5926 24.9921C41.589 24.9921 41.5854 24.993 41.5823 24.9949C41.5791 24.9967 41.5765 24.9994 41.5748 25.0026L40.4003 27.8763C40.3959 27.8845 40.3935 27.8937 40.3935 27.903C40.3935 27.9124 40.3959 27.9216 40.4003 27.9298L42.3085 30.4774C42.3637 30.5608 42.4398 30.6282 42.5292 30.6729C42.6186 30.7176 42.7182 30.7381 42.818 30.7322H45.8905C45.909 30.7352 45.928 30.7324 45.9449 30.7242C45.9618 30.716 45.9758 30.7028 45.985 30.6864C45.9942 30.67 45.9981 30.6512 45.9962 30.6325C45.9943 30.6138 45.9868 30.5961 45.9745 30.5819Z" fill="#D71920"/>
<path d="M19.0793 21.0256H16.5316C16.4958 21.0256 16.4615 21.0399 16.4362 21.0652C16.4108 21.0905 16.3966 21.1248 16.3966 21.1607V30.6047C16.3966 30.6223 16.4001 30.6397 16.4069 30.656C16.4138 30.6722 16.4237 30.6869 16.4363 30.6993C16.4489 30.7116 16.4638 30.7213 16.4802 30.7278C16.4965 30.7343 16.514 30.7375 16.5316 30.7372H19.0793C19.1146 30.7372 19.1486 30.7233 19.1738 30.6985C19.1991 30.6738 19.2136 30.6401 19.2143 30.6047V21.1556C19.213 21.1206 19.1982 21.0876 19.173 21.0634C19.1478 21.0391 19.1142 21.0256 19.0793 21.0256Z" fill="#D71920"/>
<path d="M29.5627 17.2628H27.0151C26.9977 17.2628 26.9805 17.2662 26.9644 17.2729C26.9483 17.2795 26.9337 17.2893 26.9214 17.3016C26.9091 17.3139 26.8994 17.3285 26.8927 17.3446C26.8861 17.3606 26.8826 17.3779 26.8826 17.3953V28.3322C26.6398 28.3547 26.3967 28.2924 26.1946 28.1558C25.9926 28.0193 25.8441 27.8169 25.7744 27.5832L22.3071 19.1022C21.7517 17.8513 20.7785 17.2628 18.9341 17.2628H16.5342C16.5166 17.2624 16.4991 17.2656 16.4827 17.2721C16.4663 17.2786 16.4514 17.2883 16.4389 17.3007C16.4263 17.313 16.4163 17.3277 16.4095 17.344C16.4027 17.3602 16.3992 17.3776 16.3992 17.3953V19.5327C16.3992 19.5685 16.4134 19.6029 16.4387 19.6282C16.464 19.6535 16.4984 19.6677 16.5342 19.6677H18.4729C19.278 19.6677 19.6703 19.9225 19.9455 20.5212L23.3644 28.8978C23.9223 30.1487 24.763 30.7372 26.6049 30.7372H29.4583C29.5207 30.7372 29.5806 30.7126 29.6249 30.6687C29.6693 30.6248 29.6945 30.5652 29.6952 30.5028V17.3953C29.6952 17.3601 29.6813 17.3264 29.6564 17.3016C29.6316 17.2767 29.5979 17.2628 29.5627 17.2628Z" fill="#D71920"/>
</g>
<defs>
<clipPath id="clip0_1_188">
<rect width="44" height="13.4744" fill="white" transform="translate(2 17.2628)"/>
</clipPath>
</defs>
</svg>
