<svg width="48" height="48" viewBox="0 0 48 48" fill="none" xmlns="http://www.w3.org/2000/svg">
<g clip-path="url(#clip0_1_105)">
<path d="M15.4188 32.7102L15.3344 32.7885C14.7962 33.39 14.1415 33.8759 13.4099 34.2168C12.6784 34.5577 11.8852 34.7465 11.0785 34.7718C7.91973 34.7718 5.62296 32.3967 5.62296 29.1234C5.62296 25.85 7.91973 23.481 11.0785 23.481C11.8852 23.5062 12.6784 23.6951 13.4099 24.036C14.1415 24.3769 14.7962 24.8628 15.3344 25.4642L15.4188 25.5486L17.4503 23.0831L17.3961 23.0228C16.6593 22.0819 15.7149 21.3241 14.6368 20.8085C13.5587 20.293 12.3759 20.0337 11.181 20.0509C8.81202 19.9991 6.51074 20.843 4.73681 22.4139C2.98308 24.2081 2.00119 26.6175 2.00119 29.1264C2.00119 31.6353 2.98308 34.0446 4.73681 35.8388C6.50918 37.4124 8.81152 38.2566 11.181 38.2019C12.3753 38.2189 13.5574 37.9601 14.6353 37.4457C15.7133 36.9312 16.658 36.1751 17.3961 35.236L17.4503 35.1697L15.4188 32.7102Z" fill="#004785"/>
<path d="M23.0987 20.3168H19.5059V37.8529H23.0987V20.3168Z" fill="#004785"/>
<path d="M37.1686 34.0307C36.3826 34.563 35.4646 34.8676 34.5162 34.9108C33.3528 34.9108 32.8343 34.308 32.8343 32.9336V23.632H36.4935V20.3286H32.8343V14.873L29.3078 16.7538V20.3286H26.2937V23.632H29.3078V33.5303C29.3078 36.225 30.9053 38.0636 33.2925 38.1118C34.4118 38.17 35.5228 37.8907 36.4814 37.31H36.5176L37.4098 33.9162L37.1686 34.0307Z" fill="#004785"/>
<path d="M43.7335 20.3168H40.1407V37.8529H43.7335V20.3168Z" fill="#004785"/>
<path d="M45.8493 17.2368C44.2412 14.9446 42.1047 13.0734 39.6205 11.7816C37.1363 10.4898 34.3775 9.81543 31.5775 9.81543C28.7775 9.81543 26.0187 10.4898 23.5344 11.7816C21.0502 13.0734 18.9137 14.9446 17.3056 17.2368L17.1369 17.4718H21.2662L21.3144 17.4236C22.6317 16.0228 24.2219 14.9064 25.9869 14.1433C27.752 13.3802 29.6545 12.9866 31.5775 12.9866C33.5004 12.9866 35.403 13.3802 37.168 14.1433C38.9331 14.9064 40.5232 16.0228 41.8405 17.4236L41.8887 17.4718H46.0181L45.8493 17.2368Z" fill="#ED1C2E"/>
</g>
<defs>
<clipPath id="clip0_1_105">
<rect width="44" height="28.3688" fill="white" transform="translate(2 9.81549)"/>
</clipPath>
</defs>
</svg>
