<svg width="48" height="48" viewBox="0 0 48 48" fill="none" xmlns="http://www.w3.org/2000/svg">
<g clip-path="url(#clip0_1_195)">
<path d="M2 24.2415C2 15.5725 11.8474 8.55347 24 8.55347C36.1526 8.55347 46 15.5725 46 24.2415C46 32.9104 36.1526 39.4466 24 39.4466C11.8474 39.4466 2 32.8989 2 24.2415ZM16.8085 33.0254C20.9935 35.3248 27.5469 34.5258 27.5469 34.5258C29.5532 34.5258 28.1218 33.3416 28.1218 33.3416C27.8505 33.1888 27.6183 32.9754 27.4432 32.7179C27.2682 32.4605 27.1551 32.166 27.1128 31.8576C27.0705 31.5492 27.1001 31.2352 27.1994 30.9401C27.2986 30.6451 27.4648 30.377 27.6849 30.1568C28.6883 29.0539 30.0246 28.309 31.4905 28.0356C35.6755 26.7191 40.4871 27.3457 40.4871 27.3457C41.9817 27.5929 40.7343 26.288 40.7343 26.288C39.7972 25.5349 40.3606 23.9081 40.3606 23.9081C41.6828 22.344 43.5515 21.3428 45.5861 21.1085L45.4424 20.6486L45.3274 20.3209C44.1164 19.975 42.867 19.7819 41.6081 19.746C34.3648 18.9987 30.7431 21.0567 30.7431 21.0567C24.937 23.9943 30.7431 26.7709 30.7431 26.7709C27.5194 26.1984 24.2173 26.2296 21.005 26.8628C19.3737 27.0823 17.8143 27.6722 16.4463 28.5874C12.9856 30.9616 16.8085 33.0254 16.8085 33.0254ZM2.01725 24.7703L2.13797 24.9715C4.9203 29.3462 14.7849 28.0356 14.7849 28.0356C16.1646 27.8459 15.0954 27.1618 15.0954 27.1618C12.3533 24.6611 15.8484 22.7871 15.8484 22.7871C20.683 19.9472 27.179 20.9475 27.179 20.9475C28.6794 20.9762 27.8056 20.3209 27.8056 20.3209C27.491 20.0166 27.2698 19.6289 27.168 19.2032C27.0662 18.7776 27.0879 18.3317 27.2307 17.918C28.2252 15.5438 32.347 14.762 32.347 14.762C33.4967 14.2963 32.347 13.8594 32.347 13.8594C22.3559 11.7957 17.4006 14.67 17.4006 14.67C11.4392 17.7628 17.7455 20.3841 17.7455 20.3841C15.3724 19.9851 12.9637 19.8386 10.5597 19.9472C2.82206 20.5681 2.04599 23.5344 2.04599 23.5344C2.04599 23.5344 2.01149 23.908 2.01149 24.2415L2.01725 24.7703ZM19.8035 30.7317C20.0712 30.7328 20.3332 30.6544 20.5562 30.5064C20.7792 30.3584 20.9533 30.1475 21.0562 29.9004C21.1592 29.6533 21.1864 29.3812 21.1345 29.1186C21.0825 28.856 20.9538 28.6148 20.7645 28.4255C20.5752 28.2362 20.334 28.1075 20.0714 28.0555C19.8088 28.0036 19.5367 28.0308 19.2896 28.1338C19.0425 28.2367 18.8316 28.4108 18.6836 28.6338C18.5356 28.8568 18.4572 29.1188 18.4583 29.3865C18.4583 29.7413 18.5985 30.0817 18.8482 30.3336C19.098 30.5856 19.4372 30.7286 19.792 30.7317H19.8035ZM6.66214 24.4082C6.92957 24.4082 7.19098 24.3288 7.41326 24.1801C7.63555 24.0314 7.8087 23.8201 7.91078 23.5729C8.01285 23.3257 8.03926 23.0538 7.98667 22.7916C7.93408 22.5294 7.80484 22.2887 7.61534 22.1C7.42583 21.9113 7.18458 21.7831 6.92215 21.7316C6.65972 21.6801 6.38791 21.7077 6.14116 21.8108C5.89442 21.9139 5.68383 22.088 5.53608 22.3109C5.38833 22.5338 5.31007 22.7956 5.31121 23.063C5.30739 23.2416 5.33918 23.4191 5.40471 23.5853C5.47024 23.7514 5.5682 23.9029 5.69289 24.0308C5.81757 24.1587 5.96647 24.2605 6.13091 24.3302C6.29535 24.3999 6.47203 24.4362 6.65064 24.4369L6.66214 24.4082ZM19.5851 17.6765C19.8522 17.6765 20.1134 17.5973 20.3356 17.4489C20.5577 17.3004 20.7309 17.0894 20.8331 16.8426C20.9354 16.5957 20.9621 16.3241 20.91 16.0621C20.8579 15.8 20.7292 15.5593 20.5403 15.3704C20.3514 15.1814 20.1107 15.0528 19.8486 15.0006C19.5866 14.9485 19.3149 14.9753 19.0681 15.0775C18.8212 15.1798 18.6102 15.3529 18.4618 15.5751C18.3134 15.7972 18.2341 16.0584 18.2341 16.3256C18.2303 16.5045 18.2621 16.6823 18.3275 16.8488C18.393 17.0152 18.4909 17.1671 18.6155 17.2954C18.7401 17.4238 18.8889 17.5261 19.0534 17.5964C19.2179 17.6668 19.3947 17.7038 19.5736 17.7053L19.5851 17.6765ZM32.7494 24.0633C33.0152 24.0621 33.2747 23.9823 33.4952 23.8338C33.7156 23.6853 33.8872 23.4748 33.9881 23.2289C34.089 22.983 34.1148 22.7127 34.0623 22.4521C34.0097 22.1916 33.8812 21.9524 33.6928 21.7649C33.5045 21.5773 33.2648 21.4498 33.004 21.3983C32.7432 21.3469 32.473 21.3739 32.2276 21.4759C31.9821 21.5778 31.7724 21.7503 31.6248 21.9713C31.4772 22.1924 31.3985 22.4523 31.3985 22.7181C31.3977 22.8954 31.4322 23.0712 31.4999 23.2351C31.5676 23.399 31.6671 23.5479 31.7928 23.673C31.9185 23.7982 32.0678 23.8971 32.232 23.9641C32.3962 24.0311 32.5721 24.0648 32.7494 24.0633Z" fill="#076CAF"/>
</g>
<defs>
<clipPath id="clip0_1_195">
<rect width="44" height="30.8931" fill="white" transform="translate(2 8.55347)"/>
</clipPath>
</defs>
</svg>
