<svg width="48" height="48" viewBox="0 0 48 48" fill="none" xmlns="http://www.w3.org/2000/svg">
<g clip-path="url(#clip0_1_230)">
<path d="M21.0687 29.0742C21.5415 29.0742 22.2981 29.4523 23.3697 30.587C28.2934 36.0556 34.0477 40.7144 40.4212 44.3922C41.1777 44.8019 41.5874 45.117 41.5874 45.5268C41.5874 45.9365 41.5875 46.1256 40.8941 46.1256C37.6773 45.7358 34.5089 45.0177 31.4385 43.9824C29.705 43.1629 25.9226 40.1056 21.4469 32.352C20.897 31.6785 20.5282 30.8757 20.3754 30.0197C20.3528 29.9114 20.3532 29.7996 20.3766 29.6915C20.4 29.5834 20.4458 29.4814 20.5112 29.3922C20.5766 29.3031 20.6601 29.2286 20.7561 29.1738C20.8522 29.119 20.9587 29.0851 21.0687 29.0742Z" fill="#659AD2"/>
<path d="M36.0086 6.91735C36.0086 6.91735 37.1118 9.09214 26.5531 10.5735L28.4758 5.12086C28.6249 4.78922 28.6908 4.42624 28.668 4.06337C28.6452 3.70051 28.5344 3.3487 28.345 3.03831C28.1557 2.72792 27.8935 2.4683 27.5813 2.28199C27.2691 2.09567 26.9161 1.98826 26.5531 1.96899C26.0117 2.01563 25.4969 2.22387 25.0754 2.5667C24.6539 2.90954 24.3451 3.37111 24.1892 3.89158L21.0373 11.1409C18.1629 11.3633 15.2756 11.3633 12.4012 11.1409C10.4786 10.9518 9.97442 12.0234 9.97442 13.1265C9.97442 15.0176 13.3469 16.9719 15.4902 16.7512L18.642 16.4676L6.85392 43.3844C6.41266 44.393 6.03445 46.0005 8.05164 46.0005C10.0688 46.0005 14.6391 44.1409 15.3955 41.9976L20.6906 27.0578C23.1303 26.5959 25.592 26.2593 28.0661 26.0492C29.2953 26.0492 29.9571 26.6165 29.9571 27.3099C29.9571 28.8543 26.238 33.2985 19.0203 38.7827C18.2323 39.3816 19.0201 39.8543 19.3038 39.8543C22.3721 38.4869 25.2446 36.7169 27.8454 34.5908C30.556 32.5421 35.2522 27.2469 35.2522 23.4962C35.2522 22.0463 34.6218 20.6911 31.6591 20.6911C28.6963 20.6911 23.7479 21.3214 22.6448 21.4475C23.3697 19.4618 24.0317 17.5077 24.6936 15.6796C30.2724 14.9232 33.5818 14.4188 35.536 14.009C38.2466 13.4417 40.4213 11.8973 40.4213 10.2899C40.4213 6.88585 36.0086 6.91735 36.0086 6.91735Z" fill="#632D00"/>
</g>
<defs>
<clipPath id="clip0_1_230">
<rect width="35.0487" height="44" fill="white" transform="translate(6.47565 2)"/>
</clipPath>
</defs>
</svg>
