<svg width="48" height="48" viewBox="0 0 48 48" fill="none" xmlns="http://www.w3.org/2000/svg">
<g clip-path="url(#clip0_2_242)">
<path d="M36.0046 31.0281H35.9681L35.9104 30.9461H35.88L35.7342 30.776L35.6431 30.6849V30.6606L35.5824 30.606V30.5756H35.5642L35.5338 30.53H35.5004L35.4852 30.4997L35.4062 30.4723V30.4571L35.3455 30.4328V30.4177L35.2817 30.3903L35.2665 30.3599L35.1754 30.3113L35.1238 30.2931L35.1086 30.2567L35.0509 30.2324L35.0296 30.202H35.0023L34.9841 30.1716L34.9385 30.1473L34.9081 30.1018H34.8717V30.0714H34.8322L34.7714 29.9864H34.7441L34.6165 29.8315H34.5892V29.8163L34.5406 29.7798V29.6735L34.4161 29.546V29.5186L34.3857 29.4974L34.3341 29.4275V29.4002L34.4161 29.3121H34.4465L34.4799 29.2726H34.5102L34.5285 29.2453H34.574V29.2271H34.6044L34.6226 29.1997H34.6469L34.6682 29.1754H34.6955L34.7107 29.1481H34.7623L34.8049 29.0995H34.8383L34.8535 29.0722H34.8869L34.978 28.9871H35.0296V28.9598L35.1268 28.8899L35.1875 28.8565L35.2058 28.817L35.2513 28.7988V28.7654L35.2999 28.7472V28.7624H35.3303V28.735H35.3607V28.7077H35.391L35.4093 28.6682L35.4275 28.6135H35.4548L35.4761 28.5558H35.5216L35.5642 28.5042H35.5976L35.6279 28.4647H35.6583L35.6765 28.4374H35.7039L35.7677 28.3766H35.8041L35.9104 28.2825H35.9408L35.956 28.2582L36.0046 28.2369V28.2096L36.0683 28.1489H36.0987V28.1185L36.1321 28.079L36.1898 28.0486V28.0183L36.2384 27.994V27.9697L36.287 27.9514V27.918H36.3204V27.8512H36.3538V27.8057L36.4935 27.7145V27.6872L36.6181 27.6508V27.6234L36.7153 27.5961V27.5657L36.855 27.505V27.4776H36.8853L37.0008 27.341H37.0281V27.3106H37.0615V27.2833H37.098L37.1587 27.2073V27.1648L37.2073 27.1435L37.2346 27.0615H37.2711L37.2984 26.9643H37.3288V26.9097H37.3591V26.852H37.3926L37.4077 26.7821L37.426 26.6819H37.4412V26.6545H37.4563V26.5968H37.4715V26.6363H37.4867V26.5634H37.5171V26.4571H37.5475V26.3265H37.5778V26.0744H37.596V26.0137H37.6112L37.5748 25.8163V25.5642H37.5444V25.4214L37.511 25.4002V25.2969L37.4806 25.2757V25.2028H37.4655V25.1754H37.4472V25.1177H37.432V25.0722H37.4108V25.0479V24.9871H37.3895V24.9112H37.3591H37.3865L37.4077 24.9416H37.432L37.4685 24.9932H37.5019V25.0266H37.5232L37.5839 25.1117H37.6173L37.7449 25.2665L37.8421 25.3364L37.8876 25.4184H37.918L37.9332 25.464L38.0121 25.5369V25.5672L38.0911 25.6371V25.6644L38.1245 25.6857V25.7161L38.1701 25.7495V25.7798L38.2005 25.7981V25.8284L38.2278 25.8466L38.243 25.8922H38.2582L39.221 26.9613L39.2513 26.9765V27.0069L39.2847 27.0281L39.2999 27.0706H39.3151L39.5338 27.3258H39.5672L39.5976 27.3683H39.6279L39.6796 27.4321H39.7069L39.7585 27.4989H39.7828L39.8831 27.6173L40.0835 27.8269L40.1473 27.912L40.4176 28.1883L40.4358 28.2187L40.4966 28.246L40.5118 28.2764L40.5725 28.3037L40.5907 28.3341L41.1982 28.9416H41.2286L41.2741 29.0236H41.2893V29.0509L41.3227 29.0722L41.3531 29.0934V29.1208L41.3834 29.1451V29.1724L41.429 29.2088L41.6811 29.4731H41.7084L41.7267 29.5034H41.757L41.7874 29.549H41.8178L41.8481 29.5946H41.8816L41.9301 29.6583H41.9605L42.085 29.8132H42.1185L42.164 29.8527V29.9773L42.3068 30.12L42.5163 30.3144V30.3296H42.5437V30.3478L42.571 30.363L42.6348 30.3933L42.7168 30.448V30.4814L42.7654 30.5209H42.7957L42.8443 30.5543V30.5877L42.8899 30.6211H42.9233L42.9537 30.6576L42.9719 30.691L43.221 30.934L43.5854 31.3015L43.6188 31.3379H43.6431L43.6644 31.3683L44.5087 32.1337L44.5573 32.1701L45.0311 32.6864H45.0615L45.1253 32.7715H45.1557L45.1708 32.8049L45.265 32.893L45.3288 32.9659L45.4077 33.063L45.4715 33.1481L45.5171 33.2149L45.5475 33.2605L45.5991 33.3546L45.6568 33.4366L45.6902 33.5034L45.7084 33.5338L45.757 33.631V33.6735H45.7722V33.7312H45.7874V33.7738H45.8026V33.8041H45.8178V33.8497H45.836V33.8953V33.9408L45.9393 34.3721V34.5452H45.9544V34.9158V35.0129H45.9393V35.0828V35.1526H45.921V35.2073H45.9059V35.265H45.8876V35.3106H45.8724V35.4108H45.8573V35.4381H45.839V35.4807H45.8208V35.508V35.5505H45.8056L45.7753 35.6325H45.757V35.6599H45.7418V35.6933V35.7267H45.7236L45.6993 35.8057H45.6811V35.8451H45.6477V35.9028H45.6143V35.9302L45.5687 35.9514V35.9818L45.5232 36V36.0517H45.4199V36.0851L45.2802 36.1671L45.1557 36.2795H45.1283L45.0797 36.325H45.0463L45.019 36.3645H44.9825L44.9552 36.3979H44.9248L44.9096 36.4222H44.8641H44.8003L44.7851 36.4465H44.691L44.6758 36.4708L44.5391 36.489V36.5042H44.4753H44.4267H44.3994H44.3478H44.3022H44.2567H44.2111H44.1473H44.0835H44.0106C44.0106 36.5042 43.5429 36.4435 43.3576 36.3979C43.1724 36.3524 42.6955 36.1732 42.6955 36.1732L42.6287 36.1519H42.6074V36.1367L42.5254 36.1094V36.0942L42.4677 36.0729V36.0547H42.4161L42.3523 36.0304V36.0122L42.2916 35.9849L42.2764 35.9545L42.1792 35.9089L41.7297 35.6234H41.6659V35.6052H41.6203V35.59H41.5718L41.5232 35.5687L40.8064 35.0737H40.773L40.7092 34.9856H40.6758L40.2384 34.6515V34.6333L40.1807 34.606H40.1291V34.5877L40.038 34.5391H40.0046V34.5239L39.9408 34.4966L39.9226 34.4632L39.8314 34.4176L39.8132 34.3873H39.7859V34.3691L39.7403 34.3508L39.7221 34.3144H39.6917L39.6553 34.2658H39.631L39.6128 34.2354H39.5824L39.5156 34.1504H39.4852L38.9689 33.7252V33.71L38.8747 33.6614H38.8443V33.6462H38.8109L38.7198 33.6037L38.7046 33.5672L38.6408 33.546L38.6226 33.5095L38.5619 33.4852L38.5315 33.4336H38.4981L38.4829 33.4032H38.4495L38.4161 33.3546C38.4161 33.3546 37.8876 32.9325 37.6811 32.7472C37.4746 32.5619 36.8428 31.9848 36.7699 31.9059L36.7153 31.8512V31.8208L36.6333 31.7479V31.7054L36.6029 31.6568L36.0046 31.0281Z" fill="#A3CF62"/>
<path d="M24.7183 27.6294V27.6568L24.8428 27.7418V27.7692L24.9734 27.8481V27.8785L25.019 27.8906V27.9028L25.0342 27.9362L25.0828 27.9848L25.1131 27.9939V28.0364L25.1496 28.0425L25.183 28.1215L25.1982 28.1245V28.1518L25.2285 28.1761V28.2156L25.2589 28.2247V28.2521L25.2893 28.2581L25.3257 28.3371L25.3561 28.3432V28.3705L25.3895 28.3796L25.4654 28.5102L25.4989 28.5133V28.5436L25.6264 28.6378L25.6295 28.6682L25.6598 28.6773V28.7046L25.7418 28.7471V28.7775L25.7722 28.7836V28.814L25.8815 28.8777L25.8998 28.9081L25.9453 28.9203L25.9635 28.9506L25.9939 28.9567V28.9689L26.0456 28.9962V29.0235L26.1033 29.0357V29.066L26.1853 29.1086L26.41 29.3819V29.4123L26.4434 29.4184L26.6135 29.6097V29.637L26.65 29.6431V29.6735L26.6986 29.6796V29.713L26.7259 29.719V29.7464L26.9355 29.8891L26.9992 29.9438V29.9559L27.0326 29.962V29.9742L27.0661 29.9833L27.0782 30.0106L27.1298 30.0228L27.142 30.0562L27.1906 30.0622V30.0805L27.2513 30.1048V30.1321L27.3333 30.1807V30.208L27.3667 30.2141V30.2414L27.3941 30.2475L27.4487 30.3022V30.3295L27.4761 30.3356V30.366L27.5095 30.369L27.5915 30.4571V30.4875L27.6219 30.4905L27.874 30.7152V30.7426L27.9256 30.7517V30.7821L28.0015 30.8246V30.8367L28.0501 30.8519V30.8641L28.1139 30.8884V30.9187L28.1807 30.9309V30.9613L28.29 30.9947L28.3052 31.025L28.369 31.0402V31.0645L28.448 31.0827L28.4632 31.1162L28.5482 31.1283V31.1435L28.5938 31.1526V31.1678L28.6545 31.1799V31.1921L28.7669 31.2164L28.7821 31.2468L28.9582 31.2802L28.9734 31.3136L29.1283 31.3379V31.3531L29.1769 31.3591V31.3774L29.2559 31.3895V31.4077L29.2923 31.4138L29.3075 31.4472L29.4351 31.4806V31.511L30.003 31.678L30.2065 31.7114V31.6993L30.2369 31.7054V31.6902L30.5406 31.7145V31.6872L30.8231 31.6689V31.6386L30.8656 31.6416L30.8534 31.6477V31.678L30.7745 31.7236L30.6864 31.7904V31.8147L30.6378 31.8238L30.5345 31.921L30.5011 31.9149L30.4525 31.9605L30.4222 31.9544L30.3736 32.003L30.3432 31.9969L30.3128 32.0334L30.2794 32.0304L30.2642 32.0547L30.2217 32.0607V32.0759L30.1883 32.0698L30.1762 32.0941L30.1276 32.1032V32.1154L30.0364 32.1245L30.0182 32.1518H29.9544V32.167L29.9271 32.161V32.1792L29.8967 32.1701V32.1883L29.8026 32.2004V32.2126L29.7601 32.2035V32.2156L29.7509 32.2551L29.7206 32.249L29.6446 32.3219L29.5717 32.3128V32.3402L29.4806 32.3948L29.344 32.5133L29.3075 32.5102L29.183 32.5862L29.0008 32.6712L28.9552 32.6773V32.6925L28.9218 32.6834L28.9066 32.7137H28.8428L28.8337 32.738H28.7973L28.7669 32.7593L28.7365 32.7502V32.7654L28.7061 32.7593V32.7745L28.6758 32.7684V32.7836L28.6454 32.7775V32.7927L28.612 32.7866V32.7988L28.5816 32.7957V32.8079L28.4875 32.82V32.8352L28.4389 32.8261V32.8383L28.4115 32.8352V32.8504L28.366 32.8383V32.8504L28.3204 32.8686V32.8838L28.2749 32.8747V32.8868L28.2293 32.8808V32.8929L28.0106 32.984L27.9499 33.0417L27.9165 33.0387L27.8557 33.0995L27.8223 33.0934L27.795 33.1268L27.7646 33.1238L27.7312 33.1602L27.7008 33.1541L27.6856 33.1784L27.6219 33.1815L27.6067 33.2088L27.5611 33.2149V33.2301H27.4973L27.4852 33.2604L27.388 33.2695V33.2817L27.3607 33.2786V33.2908L27.3273 33.2847V33.2999L27.2969 33.2969V33.3121L27.2027 33.3212V33.3364L27.1602 33.3212V33.3394L27.1298 33.3364V33.3485L27.0782 33.3394L27.0812 33.3546L27.0478 33.3485V33.3667L27.0023 33.3546L27.0053 33.3667L26.9598 33.3607V33.3758L26.6591 33.4913L26.6317 33.4882L26.571 33.5459L26.5406 33.5398L26.5072 33.5793L26.4768 33.5733L26.4434 33.6097L26.4131 33.6036L26.4009 33.631L26.3705 33.6249L26.3371 33.6613L26.2764 33.6644L26.2612 33.6917L26.2004 33.6947L26.1853 33.719L26.0911 33.7282L26.0759 33.7525L26.0304 33.7464L26.0121 33.7737L25.5019 33.8648L25.4411 33.8527V33.8679L25.3743 33.8557V33.8709L25.3136 33.8618V33.8709L25.2528 33.8618V33.877L25.1769 33.8618V33.877L25.0979 33.8618V33.877L24.9734 33.8527V33.8679L24.3963 33.7737V33.7616L24.2111 33.7251V33.7099L24.0835 33.6856L24.0805 33.6765L23.9924 33.6583V33.6401L23.9286 33.631V33.6158L23.8497 33.6006V33.5854L23.6765 33.5247V33.5125L23.6279 33.5034V33.4882L23.5186 33.4548V33.4427L23.4882 33.4366V33.4214L23.4427 33.4123V33.3971L23.4123 33.391V33.3789L23.3667 33.3667V33.3546L23.303 33.3303V33.3151L23.2574 33.306V33.2908L23.1602 33.2452V33.2301L23.1329 33.2209V33.2088L23.0691 33.1845L23.0539 33.1541L22.9567 33.1055L22.9415 33.0752L22.8808 33.0509V33.0326L22.8322 33.0114L22.817 32.981L22.7866 32.9749L22.7684 32.9415L22.738 32.9354L22.7077 32.8868L22.6773 32.8838L22.6439 32.8352L22.6135 32.8291L22.5831 32.7775L22.5345 32.7562L22.3948 32.5862L22.3614 32.5831L22.246 32.4313L22.2217 32.4252L22.1397 32.325V32.2946L22.1093 32.2764V32.2612L22.079 32.2399V32.2126L22.0334 32.1761V32.1458L21.9878 32.1124V32.079L21.9514 32.0607L21.9362 32.0152L21.918 32.0121V31.9818L21.8876 31.9605L21.8755 31.921L21.8572 31.9149L21.836 31.8542L21.8086 31.8299V31.8056L21.7752 31.7692V31.7449L21.7601 31.7388V31.7084H21.7449V31.678H21.7297L21.6963 31.5839H21.6811L21.6659 31.508L21.6507 31.5019V31.4715H21.6325V31.429L21.6173 31.426L21.6021 31.3652H21.5839L21.5535 31.2164L21.5383 31.2133V31.1678H21.5201V31.1253L21.5049 31.1192L21.4867 31.0159L21.4715 31.0129V30.9552L21.4563 30.9521L21.4381 30.776L21.4715 29.5672H21.4867V29.5277H21.5019V29.4852L21.5171 29.4882L21.5596 29.309L21.5809 29.3121V29.2847L21.593 29.2908V29.2452L21.6082 29.2483L21.6234 29.1906L21.6325 29.1966V29.1541L21.6538 29.1572L21.672 29.0995L21.6872 29.1055V29.06L21.7145 29.0509V29.0235L21.7449 29.0023V28.9719L21.7601 28.9749V28.9446L21.7722 28.9476V28.9203L21.8056 28.9111L21.8178 28.8565L21.8512 28.8504V28.82L21.8815 28.8079L21.8967 28.7593L21.9271 28.7471V28.7168L21.9727 28.7016V28.6682L22.0182 28.6499V28.6196L22.0941 28.5771V28.5497L22.1549 28.5193V28.489L22.1883 28.4677L22.2369 28.4616V28.4343L22.2673 28.4222L22.2946 28.3857L22.3736 28.3584V28.331L22.4039 28.3067L22.4343 28.3128L22.4829 28.2612L22.5163 28.2703L22.571 28.2065L22.6044 28.2156L22.6348 28.1761L22.6682 28.1822L22.6986 28.1458L22.732 28.1518L22.7441 28.1275L22.8049 28.1245L22.82 28.0972L22.8686 28.0941V28.0759H22.9324L22.9476 28.0486L22.9749 28.0547L23.0053 28.0304L23.0418 28.0364V28.0212L23.0691 28.0304V28.0152L23.1025 28.0212L23.1146 27.9939L23.1602 28.003V27.9878L23.224 27.9848V27.9696L23.2726 27.9787V27.9666L23.3303 27.9635V27.9484L23.3789 27.9575V27.9423L23.4123 27.9484V27.9362L23.6128 27.9301V27.9149L23.6613 27.921V27.9058L23.7069 27.918V27.9028L23.8922 27.9058L23.9104 27.8815L23.9408 27.8906L23.9681 27.8512L24.0015 27.8603L24.0288 27.8178L24.0623 27.8238L24.0926 27.7843L24.123 27.7935L24.1412 27.7692L24.202 27.7661L24.2202 27.7418L24.2475 27.7449L24.2657 27.7175L24.2931 27.7236L24.3083 27.6993L24.3417 27.7054L24.3751 27.6841L24.4024 27.6872V27.678H24.4358V27.6659L24.4662 27.672L24.691 27.6143L24.7183 27.6294Z" fill="#A3CF62"/>
<path d="M29.751 25.1572L29.7054 25.2027L29.672 25.2149L29.675 25.2392L29.6447 25.2635L29.6143 25.2604L29.5961 25.2847L29.5657 25.2786V25.2938L29.5353 25.2847V25.3029L29.4867 25.2938V25.309L29.3956 25.3181V25.3333L29.3622 25.3272L29.3652 25.3455L29.2741 25.3546L29.2559 25.3789L29.1921 25.3849L29.18 25.4092L29.1496 25.4032L29.1344 25.4275L29.101 25.4214L29.0858 25.4487L29.0554 25.4427L29.0403 25.4669L29.0099 25.4639L28.9917 25.4882L28.9188 25.5095V25.5125V25.5459L28.9856 25.5854V25.6127L29.1101 25.7099V25.7403L29.1435 25.7433V25.7737L29.1769 25.7828V25.8071L29.2073 25.8162L29.2103 25.8436L29.2407 25.8527L29.3166 25.9802L29.35 25.9863L29.3865 26.0622L29.4199 26.0744V26.0987L29.4472 26.1048L29.5262 26.2809L29.5596 26.284L29.6264 26.4146L29.6872 26.4874L29.7874 26.533V26.5634L29.8481 26.5877V26.615L29.9271 26.6606V26.6879L29.9575 26.694V26.7244L29.9909 26.7304L29.9939 26.7608L30.0729 26.8458L30.1063 26.8519V26.8823L30.1367 26.8884V26.9157L30.1671 26.9218L30.2794 27.104L30.3128 27.107V27.1404L30.3432 27.1435V27.186L30.3736 27.1951L30.41 27.2862L30.4222 27.2893L30.4556 27.3682L30.489 27.3743L30.5194 27.4533L30.5528 27.4594L30.65 27.5353V27.5626L30.6803 27.5687V27.5991L30.7897 27.6628V27.6932L30.8231 27.6993L30.8717 27.7783L30.9021 27.7843L30.9051 27.8177L30.9355 27.8238L30.9841 27.9028L31.0144 27.9058V27.9392L31.0448 27.9423L31.0964 28.0546L31.1298 28.0607V28.0941L31.1602 28.0972L31.2088 28.2035L31.2392 28.2126V28.2551L31.2696 28.2612L31.2878 28.3067L31.303 28.3098L31.3212 28.3857L31.3516 28.407V28.4373L31.385 28.4586V28.5011L31.4184 28.5193L31.4336 28.6135L31.467 28.6287V28.6925H31.4791L31.4973 28.7684L31.5308 28.7745L31.549 28.9233L31.5642 28.9294V28.9567H31.5794V29.0448L31.6128 29.066L31.6279 29.2027L31.6614 29.2209L31.6948 29.3455L31.7282 29.3485L31.7585 29.473L31.7889 29.4761L31.8102 29.5824L31.8406 29.5884L31.8588 29.7373L31.8891 29.7464L31.9408 30.2597H31.9256L31.9317 30.4905L31.9134 30.4874V30.5907L31.8983 30.5877V30.6758L31.8709 30.6818L31.8588 30.7972L31.8254 30.7912L31.7494 31.022L31.713 31.0159L31.5945 31.2316L31.5611 31.2376L31.5429 31.2346L31.5459 31.2771L31.5125 31.2741V31.2893L31.4518 31.3227L31.4032 31.3531L31.4093 31.3986L31.2939 31.432V31.4594L31.3182 31.4624L31.3303 31.4351L31.3667 31.4411L31.3759 31.4168L31.4123 31.4229L31.4245 31.3986H31.4548V31.3865L31.5034 31.3834L31.5156 31.3591H31.549L31.5976 31.3136L31.6279 31.3227L31.6887 31.2619H31.7221L31.8284 31.1678L31.8588 31.1769V31.1617L31.9043 31.1404L31.9226 31.101L32.0289 31.0341V31.0038L32.1018 30.9613V30.9339L32.1352 30.9278V30.9127L32.1686 30.9066L32.1655 30.8762L32.202 30.8671V30.8367L32.2293 30.8276V30.8003L32.2749 30.779L32.3235 30.7122L32.3812 30.6788L32.3964 30.6545L32.4267 30.6575L32.4389 30.6089L32.4753 30.618L32.4875 30.5907L32.5178 30.5968L32.533 30.5695L32.5664 30.5786L32.5816 30.5512L32.6302 30.5482L32.691 30.4874L32.7244 30.4905L32.7851 30.4297L32.8125 30.4358V30.4206L32.8428 30.4115V30.3842L32.8762 30.3903L32.9339 30.3295L32.9491 30.3325V30.3052L33.0129 30.284V30.2597L33.0919 30.2141V30.1837L33.1526 30.1534V30.126L33.1982 30.1291V30.1017L33.3197 30.0228L33.3865 30.0197L33.3986 29.9681H33.4624V29.9529L33.508 29.9499L33.5262 29.9225L33.5535 29.9286V29.9134L33.6021 29.9073L33.6143 29.883L33.6477 29.8891L33.675 29.8496L33.7084 29.8587L33.7236 29.8284L33.7418 29.8344L33.757 29.8071L33.7874 29.8132V29.801L33.8481 29.7828V29.7524L34.1397 29.5641V29.5368L34.1822 29.5186V29.4852L34.2278 29.4669L34.2885 29.4123L34.246 29.3485L34.2248 29.3455L34.2126 29.2847L34.164 29.2483L34.1488 29.1723L34.1336 29.1693L34.0668 29.0691L33.8633 28.9294V28.899L33.8147 28.8777L33.7995 28.8443L33.7631 28.8413L33.7175 28.7745L33.6841 28.7684L33.6082 28.6773L33.5718 28.6287L33.5444 28.6226L33.4928 28.5406L33.4624 28.5376L33.3835 28.4221L33.3652 28.4161V28.3857L33.268 28.2976V28.2703L33.2407 28.246V28.2156L33.2073 28.1974V28.1701L33.1708 28.1336L33.1435 28.1275L33.0281 27.8906L33.0008 27.8815L32.8641 27.5839L32.8337 27.5596V27.5322L32.8185 27.5292L32.8033 27.4381L32.7851 27.4351V27.3925L32.7699 27.3895V27.347L32.7548 27.3439V27.3014L32.7396 27.2984L32.7365 27.2376H32.7244L32.7031 27.1435L32.6879 27.1404V27.1131L32.6727 27.107V27.0524L32.6576 27.0493L32.6545 26.9613L32.6393 26.9582L32.6363 26.8823H32.6242L32.6211 26.7638L32.6059 26.7608L32.5877 26.4115L32.5695 26.4085V26.366L32.5391 26.3447L32.5178 26.2384L32.4875 26.2323L32.4723 26.1716L32.4571 26.1685V26.1108L32.4389 26.1078V26.0622L32.4055 26.044V25.9681L32.3721 25.965L32.3569 25.8162L32.3417 25.8132V25.7828H32.3265L32.3235 25.6796L32.2901 25.6553V25.5004L32.2567 25.4821L32.2506 25.0235L32.284 25.0205V24.8534L32.3144 24.8625L32.3265 24.7228H32.3417V24.6651L32.3569 24.6682V24.5922L32.3873 24.5862V24.5285L32.4207 24.5224L32.4358 24.4221L32.4693 24.4282L32.5087 24.2733L32.5421 24.2794V24.2369L32.5725 24.243L32.7001 24.0486L32.7305 24.0546L32.779 23.9605L32.8094 23.9666V23.9362L32.8398 23.9392L32.9188 23.839L32.9461 23.8451V23.8147L33.0008 23.8269L33.0463 23.7904L33.0402 23.7631L33.0737 23.7692V23.7388L33.104 23.7449L33.1374 23.7084L33.1648 23.7114L33.183 23.6871L33.2286 23.678V23.6507L33.3075 23.6082L33.4503 23.59V23.5626L33.6082 23.5505V23.5171L33.7479 23.4988L33.7995 23.511V23.4958L33.8299 23.4988V23.4837L33.8876 23.4958L33.9089 23.4715L34.079 23.4897L34.0911 23.4624L34.2369 23.4897L34.2551 23.4624L34.5042 23.511L34.5406 23.4988L34.9628 23.596V23.6264L35.3151 23.7327V23.7631L35.3941 23.7752V23.8056L35.5854 23.8846V23.9119L35.7403 23.9848V24.0182L35.8041 24.0425L35.8102 24.0577L35.8557 24.0668L35.8861 24.1154L35.9347 24.1245V24.1367L35.9711 24.1397V24.1579L36.0926 24.1792V24.1974L36.202 24.2156V24.2308L36.284 24.246V24.2612L36.3781 24.2794V24.2946L36.4419 24.3067L36.4571 24.3341L36.5209 24.3493V24.3644L36.5664 24.3736V24.3857L36.6181 24.3948V24.413L36.6819 24.4221V24.4373L36.9036 24.5345V24.5649L37.2164 24.7411V24.7684L37.2741 24.7927L37.2528 24.7684V24.7441L37.2225 24.7228V24.6955L37.1921 24.6591V24.6317L37.1587 24.6105L37.1435 24.5497L37.1131 24.5285V24.5011L37.098 24.495L37.0828 24.4525L37.0494 24.4313V24.4039L36.9856 24.3493V24.3189L36.9188 24.2642V24.2369L36.8094 24.1306L36.7973 24.085L36.7669 24.0789V24.0486L36.7335 24.0425L36.5118 23.8329L36.4844 23.7843L36.4541 23.7752L36.4328 23.7449L36.4055 23.7388L36.3721 23.6902L36.3113 23.6628L36.2961 23.6325L36.2445 23.6082V23.596L36.1503 23.5505V23.5322L36.123 23.5292V23.514L36.0289 23.4685V23.4563L35.9499 23.4229V23.4138L35.9195 23.4047V23.3895L35.8709 23.3834V23.3682L35.8405 23.3622V23.347L35.795 23.3379V23.3227H35.7616V23.3045L35.6522 23.268V23.2559L35.6036 23.2468V23.2346L35.5429 23.2225V23.2073L35.4639 23.1951V23.1769L35.388 23.1617V23.1496L35.139 23.0888V23.0767L34.4556 22.9764V22.9886L34.3705 22.9764V22.9886L34.2976 22.9764V22.9886L34.2521 22.9825V22.9977L34.1883 22.9825V23.0007L34.1245 22.9856V23.0038L34.0911 22.9947V23.0098L34 23.0068V23.022L33.9727 23.0159V23.0281L33.9241 23.025V23.0372H33.8633V23.0524L33.8147 23.0433V23.0584L33.7206 23.0706V23.0858L33.6932 23.0767V23.0949L33.6295 23.0979L33.6143 23.1192L33.5535 23.1253L33.5383 23.1496L33.5019 23.1465V23.1587L33.4563 23.1617L33.4442 23.1921L33.4108 23.183L33.3835 23.2225L33.35 23.2164L33.3197 23.2528L33.2893 23.2468L33.2407 23.2984L33.2103 23.2923L31.5459 24.2247L31.4791 24.2308V24.246L31.4336 24.2521L31.4184 24.2764L31.385 24.2673V24.2855L31.3273 24.3158L30.814 24.6256L30.8201 24.6499L30.7866 24.6591L30.7411 24.7107L30.7077 24.7016L30.6803 24.7228L29.751 25.1572Z" fill="#A3CF62"/>
<path d="M10.3007 23.4989L10.3341 23.4351H10.3462L10.3614 23.3835L10.3797 23.3865L10.3766 23.3561L10.3918 23.3592V23.3136L10.407 23.3166L10.4374 23.2377L10.4525 23.2407V23.2103L10.4708 23.2164V23.186L10.486 23.1921L10.4829 23.1617H10.4981V23.1344L10.5194 23.1405V23.1101L10.5437 23.0858V23.0585L10.574 23.0494L10.5892 22.9947L10.6226 22.9856L10.6348 22.9309L10.6712 22.9218L10.6651 22.8975H10.6803V22.8671L10.7137 22.8611V22.8307L10.7411 22.8246V22.7942L10.7775 22.7851L10.7715 22.7548L10.8049 22.7456V22.7183L10.8504 22.7001V22.6697L10.899 22.6515V22.6181L10.978 22.5786V22.5513L11.0084 22.5421V22.527L11.0357 22.5179V22.4905L11.4214 22.0167H11.4366L11.4761 21.9681L11.4913 21.9742V21.9286L11.5065 21.9317L11.5034 21.9074H11.5186V21.8618L11.5399 21.8679L11.5672 21.7859H11.5824V21.7616L11.5976 21.7646V21.7373H11.6128V21.71H11.6249V21.6826L11.6431 21.6857V21.6553L11.6583 21.6614V21.631L11.6705 21.634V21.6037L11.7039 21.5824V21.552L11.7342 21.5459L11.7494 21.4913L11.7768 21.4822L11.798 21.4275L11.8223 21.4184V21.391H11.8405V21.3668L11.8861 21.3455L11.8983 21.2847L11.9499 21.2726L11.9468 21.2392L11.9924 21.221L12.0744 21.1359V21.1056L12.1048 21.1116L12.1321 21.063H12.1473V21.0357L12.1625 21.0387L12.2111 20.9901L12.2415 20.9841V20.9507L12.2536 20.9537L12.3022 20.9051L12.3295 20.9142L12.7396 20.4677L12.7365 20.4434L12.7547 20.4465L12.7669 20.3888L12.7821 20.3948V20.3645L12.8003 20.3675V20.3371L12.8125 20.3402V20.3128L12.8307 20.3159V20.2855L12.8459 20.2916V20.2642H12.861V20.2308L12.8732 20.2399V20.2096L12.8914 20.2126L12.8884 20.1853L12.9218 20.1579V20.1336L12.9522 20.1245L12.9674 20.0699L13.0129 20.0486L13.0251 19.9939L13.0585 19.9879V19.9575L13.0737 19.9605V19.9302L13.104 19.9241L13.1192 19.8816L13.1678 19.8633V19.836L13.2134 19.8147L13.2286 19.7601L13.3075 19.7145V19.6872L13.3804 19.6447V19.6173L13.6112 19.3531L13.6234 19.3592V19.3318L13.6386 19.3349L13.6568 19.2377L13.675 19.2407L13.6689 19.2103L13.6902 19.2134L13.7024 19.1314L13.7175 19.1344V19.104L13.7327 19.1101V19.0676H13.7479L13.7631 19.016H13.7752V18.9734L13.7904 18.9765L13.8238 18.8975H13.839V18.8702L13.8542 18.8732V18.8459H13.8694V18.8155L13.8846 18.8216V18.7942H13.8967V18.7669H13.915V18.7396L13.9271 18.7456V18.7153L13.9605 18.691V18.6636L13.9909 18.6545L14.0243 18.5725L14.0516 18.5664V18.5361L14.1002 18.5179L14.1124 18.4632L14.1458 18.4541V18.4267L14.1913 18.4085V18.3781H14.2035L14.2187 18.3387L14.2521 18.3295V18.2992L14.3159 18.2718V18.2415L14.3888 18.202V18.1716L14.4829 18.1169V18.0866L14.6621 17.8071H14.6834L14.6773 17.7798L14.6955 17.7859L14.7259 17.6583L14.7411 17.6644V17.634L14.7563 17.6371V17.5945L14.7715 17.5976L14.7866 17.5429L14.8049 17.5459V17.5004L14.814 17.5034L14.8443 17.4245L14.8626 17.4275V17.4002L14.8778 17.4032V17.3728H14.896L14.8929 17.3455L14.9142 17.3516L14.9051 17.3212L14.9263 17.3242L14.9233 17.2939L14.9415 17.2969L14.9355 17.2696L14.9537 17.2726V17.2392L14.9841 17.221V17.1936L15.0175 17.1815L15.0327 17.1298L15.06 17.1177L15.0752 17.0661L15.1086 17.057V17.0296L15.139 17.0205V16.9932L15.1693 16.9841V16.9537L15.1967 16.9446V16.9142L15.2331 16.9081L15.221 16.8626L15.2635 16.8413V16.814L15.3273 16.7836L15.3424 16.7411L15.4791 16.5528V16.4829L15.4973 16.486V16.4404L15.5125 16.4465L15.5065 16.4009L15.5247 16.404V16.3462L15.5399 16.3523V16.3068L15.5793 16.3128V16.2703L15.5976 16.2764L15.5945 16.2308H15.6097V16.2035L15.6249 16.2096L15.6401 16.1245L15.6583 16.1276L15.6522 16.0972L15.6705 16.1002V16.0577L15.6857 16.0608L15.7008 16.0061L15.7191 16.0122L15.716 15.9787L15.7312 15.9848V15.9423L15.7494 15.9453L15.7768 15.8664H15.792V15.839H15.8102L15.8041 15.8147H15.8254L15.8527 15.7327L15.8861 15.7236V15.6811L15.9134 15.672L15.9317 15.6204L15.959 15.6112V15.5809L15.9894 15.5748V15.5444L16.0228 15.5353V15.508L16.0501 15.4989V15.4715L16.0866 15.4624V15.4351H16.1017L16.1109 15.3956L16.1473 15.3895V15.3592L16.1898 15.3379V15.3106L16.2688 15.268V15.2407L16.4966 14.9066V14.8671H16.5118V14.8246L16.5239 14.8307V14.7699H16.5421L16.5391 14.7456L16.5543 14.7487V14.7062L16.5725 14.7092V14.6788L16.5847 14.6819V14.6363L16.5998 14.6424V14.612L16.6181 14.615V14.5725L16.6302 14.5756L16.6454 14.5209L16.6606 14.5239V14.4966H16.6758V14.4541L16.7092 14.445V14.4055L16.7244 14.4085V14.3781H16.7365V14.3508L16.7699 14.3417L16.7669 14.3144L16.8003 14.2931V14.2627H16.8125V14.2354L16.8307 14.2415V14.2111L16.861 14.202L16.8762 14.1473L16.9066 14.1412V14.1109L16.937 14.1018V14.0744L16.9704 14.0653L16.9674 14.0349L16.9977 14.0289V13.9985L17.0281 13.9894V13.962L17.0767 13.9408V13.9165L17.1192 13.8922V13.8618L17.3197 13.5824L17.3349 13.5885V13.5459L17.3531 13.549V13.5034L17.3652 13.5095V13.4639L17.3804 13.467V13.4123L17.3956 13.4153V13.385H17.4108L17.4442 13.2635L17.4563 13.2665V13.2361L17.4746 13.2392L17.4715 13.1967L17.4867 13.2027L17.5019 13.1481H17.5171L17.5323 13.0843H17.5475L17.5748 13.0023L17.59 13.0053V12.9749L17.6112 12.981L17.6082 12.9537L17.6264 12.9567L17.6234 12.9264L17.6386 12.9294V12.9021L17.672 12.8778V12.8474L17.6993 12.8413L17.7145 12.7836L17.7449 12.7775L17.7601 12.7229L17.7904 12.7107L17.8087 12.656L17.8542 12.6409L17.8512 12.6105L17.8815 12.6014V12.571L17.915 12.5649L17.9271 12.5224L17.9727 12.5042V12.4738L18.0091 12.4677L18.003 12.4526L18.0364 12.4465V12.4161L18.0972 12.3827V12.3554L18.5103 11.7996V11.7722L18.5254 11.7783V11.7479L18.5588 11.7388V11.7115L18.5892 11.6872V11.6568L18.6014 11.6598V11.6325L18.6317 11.6234L18.6469 11.5687L18.6621 11.5718L18.6803 11.5353L18.7077 11.5232L18.7259 11.4685L18.7684 11.4472V11.4199L18.7988 11.4108V11.3774L18.8474 11.3622V11.3318L18.9051 11.3045V11.2711L18.9689 11.2407V11.2164L19.1116 11.1253L19.1055 11.0949L19.142 11.0888L19.1693 11.0494L19.2027 11.0554L19.3273 10.9491L19.3576 10.9552L19.4032 10.9066L19.4336 10.9127L19.4943 10.8519L19.5216 10.858L19.555 10.8216L19.5885 10.8246L19.6067 10.8003L19.6492 10.7942V10.779L19.6796 10.7882L19.6948 10.7639L19.7282 10.7699L19.7434 10.7396L19.792 10.7335V10.7183L19.8831 10.7092L19.8952 10.6849L19.9286 10.691L19.959 10.6636L19.9894 10.6697V10.6576L20.0197 10.6636V10.6515L20.0562 10.6545L20.0683 10.6272L20.1109 10.6363V10.6242L20.1746 10.6181V10.6059L20.2202 10.615V10.5999L20.284 10.5968V10.5847L20.3326 10.5907V10.5786L20.3629 10.5847V10.5695L20.4115 10.5786V10.5664L20.4358 10.5695V10.5513L20.7031 10.5057L20.7304 10.5118L20.7487 10.4814H20.8125L20.8246 10.4541L20.8884 10.451V10.4358L20.9218 10.4419V10.4298L21.0099 10.4176V10.4055L21.0585 10.4085V10.3964L21.1222 10.3933V10.3812L21.1678 10.3903V10.3721L21.2012 10.3812V10.363L21.2893 10.369L21.2923 10.3538L21.3379 10.363V10.3478L21.3834 10.3569V10.3447L21.432 10.3508V10.3356L21.4928 10.3478V10.3326L21.5566 10.3447V10.3326L21.6325 10.3447V10.3326L22.8626 10.6181V10.6333L22.9112 10.6424V10.6545L22.9567 10.6636V10.6788L23.0053 10.6879V10.7031L23.0539 10.7092V10.7244L23.0843 10.7305V10.7426L23.1329 10.7517V10.7699L23.1936 10.7942V10.8064L23.2422 10.8155V10.8337L23.3364 10.8793V10.8914L23.3971 10.9157L23.4123 10.9461L23.4761 10.9734L23.4913 11.0038L23.5247 11.0099L23.5399 11.0433L23.5702 11.0494L23.5885 11.0797L23.6158 11.0858L23.634 11.1162L23.6644 11.1223L23.6826 11.1557L23.713 11.1617L23.7585 11.2255L23.792 11.2316L23.8527 11.3166L23.8861 11.3227V11.3318L23.9165 11.3561V11.3865L24.1686 11.675L24.2141 11.7145V11.7388L24.2658 11.7783V11.8056L24.2931 11.8238L24.3083 11.8755H24.3265V11.9059L24.3569 11.9241L24.3751 11.9696L24.3872 11.9757V12.003L24.4237 12.0395V12.0638L24.4389 12.0668V12.0972L24.4541 12.1033V12.1306H24.4692V12.1579L24.4844 12.164V12.1944H24.4966L24.533 12.2855L24.5482 12.2916V12.3311L24.5664 12.3371V12.3645L24.5786 12.3675V12.41L24.5938 12.4131V12.4465H24.615V12.489L24.6272 12.492V12.5346L24.6454 12.5376L24.6636 12.6409H24.6758L24.8398 13.1298L24.8489 13.1359L24.8732 13.1936L24.8853 13.1967L24.9036 13.2878H24.9188V13.3182H24.9339L24.9856 13.5156L24.9947 13.5186V13.5642H25.0159V13.6097H25.0311V13.6644L25.0463 13.6705L25.0797 13.8922V15.0797L25.0494 15.2772L25.0342 15.2711V15.3166L25.019 15.3136V15.3561L24.8853 16.1033L24.8732 16.1002L24.8793 16.2764H24.858L24.8641 16.4009L24.8459 16.3979V16.4829H24.8307V16.5649H24.8125V16.6348L24.8003 16.6317V16.6864H24.7882L24.6211 17.2179L24.609 17.2119L24.5907 17.2696L24.5756 17.2665V17.309L24.5604 17.306L24.5452 17.3607L24.53 17.3546V17.385L24.5118 17.3819L24.5178 17.4245L24.4844 17.4336V17.4639L24.4541 17.4852L24.284 17.8557L24.2718 17.8922L24.2566 17.8557L24.2111 17.8193L24.1959 17.7555L24.1473 17.7221V17.6917L24.1169 17.6705V17.6401L24.0683 17.6037L24.0349 17.5551L24.0197 17.549V17.5216L23.956 17.467L23.877 17.3516L23.8466 17.3455L23.8284 17.2969H23.8132V17.2544L23.795 17.2483V17.2027H23.7798V17.1572L23.7616 17.1541V17.1116L23.7464 17.1086V17.0661H23.7312V17.0205L23.716 17.0175L23.6857 16.9233H23.6644V16.8929L23.6522 16.8899V16.8626L23.634 16.8565V16.8292L23.6158 16.8261V16.7958L23.6036 16.7927V16.7654L23.5702 16.732V16.7016L23.5399 16.6803L23.5095 16.5892L23.4579 16.5497V16.5194L23.3941 16.4677L23.3789 16.4191L23.3455 16.3979V16.3705L23.2969 16.3311V16.3037L23.2513 16.2673V16.2369L23.139 16.1276L23.1238 16.082L23.0934 16.0759V16.0486L23.0296 16.0061L22.9506 15.9059L22.9142 15.8998V15.8876L22.8352 15.8238V15.7996L22.7927 15.7722V15.7601L22.7441 15.7388L22.7289 15.7054L22.6317 15.6598L22.6166 15.6264L22.568 15.6052V15.59L22.5406 15.5869L22.5011 15.5475L22.4738 15.5444V15.5292L22.4434 15.5232L22.4252 15.4898L22.3948 15.4867V15.4715L22.3614 15.4655L22.328 15.432L22.2976 15.426L22.2825 15.3926L22.1397 15.3227V15.3075L22.1093 15.3014V15.2863L22.0152 15.2559L21.6507 15.0858L21.4806 15.0372V15.0281L20.9765 14.9188L20.0319 14.9309L19.9803 14.9218V14.937L19.8922 14.9522V14.9613L19.8284 14.9674L19.8132 14.9917L19.7828 14.9856V15.0008L19.7525 14.9947V15.0099L19.7191 15.0038L19.6856 15.0281L19.6583 15.019L19.6401 15.0463L19.549 15.0615L19.5156 15.0949L19.4487 15.101L19.4396 15.1253L19.388 15.1314V15.1435L19.3424 15.1526L19.3455 15.18L19.2635 15.2103V15.2225L19.2361 15.2164L19.1572 15.2923L19.0964 15.3075V15.3379L19.0478 15.3409V15.3713L19.0175 15.3774V15.3956L18.9841 15.3895L18.9051 15.4594V15.4898L18.896 15.4867L18.8656 15.5414L18.8322 15.5323L18.817 15.5718H18.7988L18.7836 15.6112L18.7502 15.6204L18.738 15.675L18.6955 15.6963L18.6591 15.7722L18.6257 15.7844L18.6317 15.8147L18.6014 15.839V15.8664H18.5862V15.8937H18.568V15.918L18.5528 15.915V15.9453L18.5376 15.9423V15.9696L18.5224 15.9666L18.489 16.0486H18.4738L18.3219 16.4951L18.2976 16.7806L18.2794 16.7775L18.2703 17.1086H18.2825L18.3007 17.4032L18.3189 17.4093L18.3371 17.5854L18.3493 17.5885L18.3523 17.6431L18.3675 17.6462V17.7039L18.3827 17.71L18.3888 17.7646L18.4009 17.7677L18.407 17.8102L18.4191 17.8163V17.8588L18.4343 17.8649V17.9074H18.4495V17.9529H18.4677V17.9985L18.4829 18.0015V18.044L18.4981 18.0501V18.0926H18.5133L18.5497 18.1868L18.5649 18.1898V18.2172H18.5771L18.5801 18.2475L18.5983 18.2536V18.284H18.6135V18.3174H18.6257V18.3447L18.6591 18.3812V18.4085L18.6955 18.4298L18.7259 18.5209L18.7684 18.5604L18.7866 18.6211L18.82 18.6424L18.8352 18.6879L18.8504 18.691L18.8686 18.7396L18.896 18.7456V18.7699L18.9446 18.8094V18.8368L18.981 18.858V18.8884L19.0266 18.9279V18.9431L19.0569 18.9461L19.0904 18.9825L19.1055 19.0251L19.1693 19.0828V19.1253L19.1845 19.1314V19.1708L19.2027 19.1769L19.2058 19.2164L19.221 19.2225V19.265L19.2361 19.268V19.2984H19.2513L19.2665 19.3895L19.2847 19.3926L19.3181 19.4867L19.3364 19.4898V19.5171L19.3516 19.5232V19.5505H19.3607V19.5809L19.3819 19.5869V19.6112L19.4123 19.6507V19.6781L19.4427 19.6963L19.4761 19.7904L19.5216 19.8299L19.5429 19.8876L19.5733 19.9089L19.5885 19.9575L19.6522 20.0091V20.0425L19.7312 20.1154V20.1397L19.8436 20.2491L19.8588 20.2946L19.8922 20.3007L19.9408 20.4131L19.9711 20.5467L19.9894 20.5497V20.5801L20.0046 20.5832V20.6257L20.0197 20.6287L20.0562 20.7198L20.0683 20.7259V20.7532L20.0835 20.7563V20.7866L20.1017 20.7897V20.817L20.1139 20.8201V20.8626L20.1473 20.8838L20.1655 20.9446L20.1989 20.9658L20.2293 21.057L20.2597 21.0782V21.1086L20.2931 21.1298L20.3113 21.1906L20.3386 21.2088V21.2392L20.4024 21.2908V21.3242L20.4692 21.3759V21.4093L20.5178 21.4457L20.5361 21.4761L20.5664 21.4822V21.4973L20.5938 21.5186V21.5459L20.6454 21.5672L20.6636 21.6158L20.691 21.6219L20.7092 21.6522L20.7244 21.6553V21.6857L20.7547 21.7069L20.7699 21.792L20.7882 21.8011V21.8284L20.8064 21.8314V21.874L20.8216 21.877L20.855 21.9681L20.8671 21.9742V22.0015L20.8853 22.0046V22.0349L20.9005 22.038V22.0653H20.9188V22.0987H20.9339V22.1321L20.9643 22.1655V22.1929L21.0008 22.2172L21.0281 22.3083L21.0767 22.3447L21.0919 22.3903H21.1101V22.4207L21.1557 22.4601V22.4905L21.2225 22.5452V22.5725L21.2832 22.6272V22.6576L21.3956 22.7699L21.4108 22.8125L21.4442 22.8155V22.8459L21.4897 22.8671V22.8823L21.5718 22.9582V22.9856L21.6021 23.0068V23.0342L21.6173 23.0372V23.0676L21.6325 23.0706V23.1131L21.6507 23.1162L21.6963 23.2346H21.6902L21.6781 23.3166L21.6629 23.3136V23.344L21.6477 23.3379V23.3835L21.6295 23.3774V23.4229H21.6173V23.4503L21.6021 23.4442V23.4898L21.5839 23.4837L21.5718 23.5384L21.5566 23.5353V23.5809L21.5414 23.5778L21.508 23.6568L21.4928 23.6538V23.6872L21.4806 23.6781V23.7236L21.4533 23.7327V23.7601L21.4351 23.757V23.8026L21.4047 23.8087V23.839L21.3895 23.836V23.8633L21.3592 23.8876V23.915L21.3288 23.9241L21.2984 24.003L21.265 24.0152V24.0425L21.2225 24.0608L21.2073 24.1154L21.1617 24.1367V24.1671L21.1283 24.1731L21.1131 24.2156L21.098 24.2096V24.2399L21.0494 24.2612V24.2916L20.9765 24.3614L20.8003 24.5953L20.773 24.6409L20.7608 24.6378V24.6773L20.7456 24.6743V24.732H20.7274V24.7745L20.7153 24.7684L20.691 24.8109L20.6758 24.8049V24.8504L20.6636 24.8474V24.8899L20.6454 24.8869V24.9142L20.6302 24.9112V24.9567L20.615 24.9507V24.981L20.5998 24.978L20.5573 25.0539H20.5482L20.527 25.1086L20.5178 25.1025V25.1329L20.4996 25.1298V25.1754L20.4844 25.1724L20.4541 25.1845H20.4632L20.4662 25.2149L20.445 25.2119L20.4207 25.2939L20.3872 25.2999L20.3569 25.3819L20.3235 25.391L20.2961 25.467L20.2658 25.4822V25.5034L20.2323 25.5125V25.5459L20.202 25.552V25.5824H20.1838L20.1686 25.6219L20.1382 25.6279V25.6553L20.0957 25.6765V25.7069L20.0653 25.713V25.7434L20.0319 25.7525L20.0623 25.7707L20.0258 25.7768V25.8071L19.9651 25.9074V25.9377L19.8588 25.9985V26.0319L19.798 26.0592L19.4761 26.4753L19.4609 26.4723L19.4427 26.527L19.4336 26.5239V26.5543L19.4123 26.5513V26.5907H19.4032L19.3698 26.6697H19.3516V26.694L19.3394 26.691V26.7244L19.3212 26.7183L19.3273 26.7487L19.309 26.7456V26.773L19.2787 26.7942V26.8246L19.2483 26.8337V26.8762L19.2331 26.8702L19.2149 26.9157L19.1845 26.9188L19.1693 26.9765L19.142 26.9856V27.0129L19.1238 27.0099V27.0403L19.0964 27.0494V27.0767L19.0478 27.098L19.0327 27.1526L18.9841 27.1709V27.2012L18.9415 27.2225V27.2498L18.9112 27.2589V27.2863L18.8474 27.3197V27.347L18.7684 27.3895V27.4199L18.5376 27.7024H18.5224V27.7601L18.5042 27.754V27.7844L18.489 27.7813L18.4343 27.9028L18.4191 27.8967L18.407 27.9666H18.3888V27.9939L18.3766 27.9879V28.0304H18.3614L18.328 28.1093L18.3128 28.1063V28.1336L18.2976 28.1306V28.161H18.2825V28.2005L18.2521 28.2126V28.2521L18.2248 28.2612V28.2916L18.2065 28.2855V28.3159L18.1913 28.3128V28.3432L18.1762 28.3402V28.3675L18.1458 28.3918V28.4222L18.1154 28.4313L18.1002 28.4829L18.0699 28.489L18.0547 28.5467L18.0091 28.568L17.9909 28.6196L17.9514 28.6378L17.9332 28.6803L17.9028 28.6925L17.8846 28.7472L17.836 28.7623V28.7927L17.7631 28.8383V28.8656L17.6841 28.9051V28.9385L17.426 29.2331L17.4108 29.2726L17.3956 29.2696V29.3273L17.3804 29.3212L17.3652 29.3759L17.3531 29.3728L17.3349 29.4579L17.3197 29.4548L17.3075 29.5277L17.2893 29.5216L17.2741 29.5733L17.2589 29.5702V29.6006L17.2407 29.5976V29.6431L17.2255 29.6371L17.1982 29.7221L17.183 29.7191V29.7464H17.1678L17.1344 29.8223L17.104 29.8284V29.8618L17.0767 29.8831V29.9104L17.0615 29.9074V29.9377H17.0463V29.962L17.019 29.9742L17.0008 30.0258L16.9704 30.0349V30.0623L16.937 30.0714V30.1018L16.9066 30.1078V30.1352L16.8762 30.1473V30.1746L16.8459 30.1838V30.2141L16.8003 30.2324V30.2597L16.7699 30.2688V30.3022L16.7092 30.3326V30.3599L16.6302 30.4024V30.4298L16.5725 30.4632V30.4784L16.5391 30.4875L16.2718 30.8216L16.2566 30.8459L16.2232 30.9279H16.2111L16.1989 30.9825L16.1838 30.9795V31.019L16.1655 31.016V31.0463L16.1503 31.0433V31.0858H16.1321L16.0805 31.1617L16.0653 31.1557V31.186L16.0501 31.183V31.2255L16.0228 31.2346V31.262L15.9894 31.2832V31.3136H15.9742V31.3379H15.959V31.3652L15.9286 31.3895V31.4169L15.8983 31.426L15.88 31.4806L15.8527 31.4898V31.5171L15.8223 31.5262V31.5535L15.7889 31.5627L15.7737 31.6204L15.7251 31.6386L15.716 31.6933L15.6674 31.7115L15.5885 31.7996V31.8299L15.5642 31.8208L15.5308 31.8755L15.5156 31.8724V31.8967L15.4852 31.9059V31.921L15.4518 31.9302V31.9605L15.2847 32.0729V32.1002L15.2513 32.1063L15.1784 32.1792L15.145 32.1762L15.1268 32.2005L14.6348 32.656L14.6196 32.65L14.6257 32.6773H14.6074V32.7046L14.5771 32.7289V32.7593L14.5437 32.7654L14.5285 32.8201L14.5011 32.8292L14.4829 32.8838L14.4374 32.9021L14.4252 32.9567L14.3766 32.978L14.3614 33.0327L14.3189 33.0509V33.0813L14.2703 33.1025V33.1298L14.2065 33.1602L14.1974 33.2027L14.1792 33.1997V33.227L14.1488 33.221L13.839 33.5095L13.8087 33.5034L13.7904 33.5247L13.6689 33.5915V33.6219L13.6538 33.6158L13.59 33.6492V33.6644L13.5657 33.6583V33.6857L13.4989 33.7039V33.7191L13.4715 33.71L13.4533 33.7373L13.4381 33.7343L13.4199 33.7616L13.1131 34.0623L13.0858 34.0714L13.0676 34.1261L13.0372 34.1321V34.1625L13.0038 34.1716V34.1989L12.9765 34.2081V34.2354L12.9461 34.2475V34.2718L12.9157 34.284V34.3113L12.8671 34.3295V34.3599L12.8398 34.369V34.3964L12.8094 34.4024V34.4176L12.779 34.4298V34.4571L12.7153 34.4905V34.5179L12.609 34.5847V34.612L12.4996 34.6788L12.4844 34.7183L12.4571 34.7153L12.4419 34.7517L12.3933 34.7608L12.2536 34.8459L11.8527 35.2437L11.795 35.3227V35.35L11.7616 35.3561L11.7464 35.4138L11.716 35.4229L11.7191 35.4503L11.6856 35.4594L11.6583 35.4989V35.5232L11.6249 35.5323L11.6006 35.5353L11.5702 35.5414V35.5687L11.5399 35.5809V35.6082L11.4913 35.6295L11.4153 35.7145V35.7449L11.385 35.7358L11.3667 35.7783L11.3242 35.7965V35.8269L11.2453 35.8694L10.9537 36.0881V36.1154L10.9263 36.1397L10.8899 36.1336L10.8626 36.1701L10.7046 36.243L10.7107 36.2673L10.6621 36.2764L10.568 36.3159L10.5376 36.3523L10.5072 36.3463L10.4586 36.3675L10.4434 36.3948L10.4343 36.4161L10.4222 36.4404L10.3159 36.4647V36.4951L10.2551 36.4981V36.5103L10.2217 36.5042L10.2065 36.5285L10.1731 36.5224V36.5406L10.1458 36.5315L10.1124 36.5406L9.17084 37.1541L9.14351 37.1481L9.09188 37.1997L9.06454 37.1936V37.2058L9.01898 37.2301L9.00076 37.2544L8.97039 37.2453L8.95824 37.2756L8.92179 37.2665L8.89142 37.303L8.86105 37.2969L8.83068 37.3364L8.76689 37.3394L8.73956 37.3759L8.70919 37.3728L8.694 37.3941L8.62718 37.3971L8.612 37.4245L8.55429 37.4275L8.5391 37.4518L8.5057 37.4457L8.47532 37.4731L8.44495 37.4639V37.4791L8.41458 37.4731L8.39939 37.5004L8.33257 37.5034L8.33865 37.5156L8.30828 37.5125V37.5216L8.21412 37.5368V37.5551L8.16553 37.5399V37.5581L8.13516 37.5551V37.5642L8.04404 37.5763V37.5915L7.94989 37.5854V37.6006L7.91648 37.5945V37.6128L7.77677 37.6158V37.6249L7.74639 37.6219V37.634L7.68565 37.6249V37.6371L7.64009 37.631V37.6462L7.5915 37.634V37.6522L7.54594 37.6431V37.6553L7.48519 37.6462L7.22399 37.6674L7.0691 37.6522V37.6674L6.13364 37.5368V37.5216L5.80258 37.4457L5.17692 37.2179V37.1997L4.97342 37.1207V37.1086L4.94609 37.1025V37.0843L4.89749 37.0782V37.063L4.80334 37.0327V37.0175L4.76993 37.0114V36.9993L4.72134 36.9871V36.975L4.66363 36.9476V36.9355L4.63326 36.9294V36.9142L4.58466 36.9081V36.8929L4.52088 36.8656V36.8504L4.49355 36.8474V36.8352L4.44191 36.8231L4.42976 36.7897L4.39332 36.7866V36.7715L4.36598 36.7654V36.7502L4.33257 36.7472V36.732L4.3022 36.7229L4.26879 36.6925L4.23842 36.6834L4.22323 36.653L4.12908 36.6044L4.1139 36.5771L4.05011 36.5528L4.01974 36.5011L3.98937 36.4951L3.96811 36.4647L3.94077 36.4586L3.93774 36.4434L3.89218 36.4222L3.87699 36.3888L3.84662 36.3827L3.81625 36.3341L3.78284 36.328L3.76765 36.2977L3.73424 36.2916L3.70387 36.243L3.6735 36.2399L3.60972 36.1549L3.57935 36.1488L3.50038 36.0486L3.47001 36.0425L3.26651 35.8056L3.13895 35.6781V35.6507L3.02658 35.5414V35.5141L2.96887 35.4594V35.4321L2.90509 35.3743L2.89901 35.35L2.86864 35.3288V35.2984L2.82308 35.262V35.2346L2.78967 35.2134L2.77449 35.1678L2.7593 35.1648V35.1374L2.72589 35.1162V35.0888L2.69552 35.0645V35.0372L2.66819 35.016L2.63478 34.9248L2.60137 34.9066L2.57099 34.8155L2.53759 34.7942L2.51936 34.7365L2.50418 34.7305V34.7031L2.48899 34.7001V34.6697H2.47077V34.6393L2.46166 34.6363L2.45558 34.6059L2.44039 34.6029V34.5604L2.40699 34.5421V34.4996L2.3918 34.4936L2.37661 34.4358H2.36143V34.3903H2.34624L2.33106 34.3265L2.31587 34.3235L2.29765 34.2354L2.27942 34.2293V34.202L2.26424 34.1989V34.1412L2.24905 34.1382V34.1109L2.2369 34.1078V34.0532L2.21564 34.0471V34.0046L2.20046 34.0015V33.956H2.18527L2.16705 33.8527L2.1549 33.8497L2.13667 33.7191L2.11845 33.716V33.6583L2.1063 33.6553V33.5945H2.08808V33.5095L2.07289 33.5065L2.05467 33.2999L2.03948 33.2969L2 32.7472L2.01822 32.7502L2.03948 32.2248L2.05467 32.2278V32.1397L2.07289 32.1428V32.0577L2.08808 32.0608L2.10023 31.9332L2.11541 31.9393L2.11238 31.8664L2.1306 31.8694L2.12756 31.8147H2.14579L2.16097 31.7145L2.17312 31.7236V31.6781H2.18831V31.6355L2.20653 31.6386V31.5839H2.22172L2.21564 31.5535L2.2369 31.5566L2.26424 31.4321L2.27942 31.4351L2.29765 31.3835L2.30979 31.3865L2.32194 31.2984L2.3432 31.3075L2.37358 31.2255L2.3918 31.2316V31.1982L2.40091 31.2043L2.4161 31.1344L2.44647 31.1253L2.46166 31.0585L2.4981 31.0463L2.49203 31.019L2.52544 30.9977V30.9643L2.53759 30.9704V30.9431H2.55277V30.9157L2.58314 30.9097L2.61959 30.8246L2.6287 30.8276L2.64389 30.7882L2.6773 30.7821V30.7517L2.70767 30.7426V30.7153L2.75626 30.694L2.77145 30.6363L2.81701 30.6242V30.5907L2.85953 30.5725V30.5421L2.93546 30.4996V30.4723L3.01443 30.4267V30.3994L3.07213 30.369V30.3356L3.17236 30.3022V30.2718L3.27866 30.2081L3.29385 30.1807L3.32422 30.1838L3.35763 30.1625L3.35459 30.1321L3.50645 30.0592V30.0319L3.63098 29.9833L3.64617 29.959L3.67654 29.962L3.70995 29.9256L3.74032 29.9347L3.77069 29.8952L3.8041 29.8983L3.81625 29.877L3.86181 29.8679V29.8557L3.89218 29.8618L3.9104 29.8345L3.94077 29.8436L3.95596 29.8163L3.98937 29.8223L4.38724 29.549L4.61807 29.309H4.63629L4.7426 29.2027H4.75778V29.1754L4.81853 29.1298L4.86409 29.1238L4.97342 29.0296L5.42293 28.7107V28.6834L5.44723 28.6469L5.48064 28.6226V28.5923L5.49582 28.5953V28.568L5.5262 28.5589V28.5315L5.55961 28.5072L5.55353 28.4799L5.5839 28.4708V28.4404L5.61731 28.4343V28.404L5.64768 28.3675L5.68109 28.3584L5.75702 28.2734L5.84814 28.1762V28.1458L5.88155 28.1519L5.96355 28.1093L5.9757 28.1124V28.085L6.03341 28.0516V28.0365L6.06378 28.0304V28.003L6.16097 27.9453L6.34017 27.751L6.37054 27.754L6.46773 27.672L6.4981 27.6781L6.5224 27.5961L6.55581 27.6052L6.61959 27.5414L6.64996 27.5475L6.66515 27.5232L6.69856 27.5262L6.72589 27.4898L6.85649 27.3986L6.88686 27.3774L6.90509 27.3683L7.02961 27.2346L7.04176 27.1769L7.05695 27.18L7.07517 27.1405L7.10554 27.1344V27.104L7.13288 27.098V27.0676L7.1997 27.0342L7.21185 26.9795L7.24222 26.9704L7.2574 26.9339L7.33637 26.8884V26.8611L7.4123 26.8185V26.7882L7.56416 26.6879L7.57935 26.6485L8.16857 26.041L8.20197 26.0349L8.23235 25.956L8.26576 25.9438L8.29309 25.8618L8.30828 25.8649L8.32346 25.8254L8.35383 25.8163L8.36902 25.7616L8.41458 25.7434L8.42977 25.6887L8.47532 25.6674V25.6401L8.52392 25.6219V25.5885L8.55429 25.5824V25.552L8.63326 25.5095L8.62718 25.4822L8.70919 25.4366V25.4123L9.37434 24.4647L9.39256 24.4343L9.42597 24.4283L9.44115 24.3705L9.47456 24.3645L9.48975 24.3068L9.52012 24.3007V24.2703L9.55049 24.2612L9.54746 24.2308L9.57783 24.2248V24.1944L9.61124 24.1883V24.161L9.65376 24.1367V24.1124L9.70235 24.0881L9.69932 24.0608L9.78132 24.0213V23.9879L9.85725 23.9484V23.921L9.92103 23.8876L9.918 23.8573L9.95141 23.836L9.98178 23.8421" fill="#00B9AD"/>
<path d="M21.7145 23.1709L21.7601 23.0069L21.7904 23.0129L21.836 22.8216L21.8664 22.8064L21.8816 22.77H21.8967L21.915 22.7305L21.9453 22.7335L22.0091 22.6333L22.0395 22.6394L22.0972 22.5179L22.1306 22.524L22.1914 22.3903L22.2248 22.3964L22.2885 22.2931V22.2476L22.3189 22.2415L22.3159 22.199L22.3432 22.1899L22.3614 22.117L22.3766 22.123V22.0927L22.41 22.0866L22.4252 21.9985L22.4556 22.0076L22.4708 21.9074L22.4981 21.8983L22.5163 21.7859L22.5467 21.7768L22.5619 21.6614L22.5953 21.6553V21.5824L22.6044 21.5855V21.5308L22.6409 21.5186L22.653 21.3486L22.6834 21.3364L22.6803 21.221L22.6955 21.224V21.1815L22.7107 21.1845L22.7289 21.1177L22.7441 21.1208L22.7745 21.1086L22.7897 21.0418L22.8352 21.0357L22.8322 20.9932L22.8626 20.9962L22.8838 20.9264L22.9324 20.9233L22.9264 20.8778L22.9567 20.8839L22.9901 20.7897L23.0205 20.7958L23.0387 20.7107L23.0691 20.7168L23.1754 20.4769L23.2058 20.483L23.221 20.3979L23.2513 20.404L23.2696 20.3068L23.2969 20.3129L23.3121 20.1853L23.3424 20.1914L23.388 19.994L23.4062 19.997L23.4214 19.8543L23.4488 19.8482L23.4609 19.6477L23.4973 19.6386V19.5809H23.5125L23.5551 19.4898L23.5885 19.4959L23.634 19.4625L23.713 19.3015L23.7403 19.3076L23.8041 19.1709L23.8345 19.18L24.2597 17.9712L24.2779 17.9742L24.2901 17.9438H24.3052V17.9742H24.3204V18.0076H24.3356V18.035L24.3508 18.038V18.0684L24.369 18.0714V18.0987L24.3842 18.1018V18.1322L24.3994 18.1352V18.1625L24.4146 18.1656L24.448 18.2567L24.4632 18.2628L24.7487 18.7548V18.7882L24.8094 18.8429V18.8702L24.858 18.9066V18.934L24.9066 18.9735V19.0038L24.937 19.0221V19.0524L24.9704 19.0707L24.9856 19.1192H25.0008V19.1496L25.0342 19.18V19.2104L25.0494 19.2134V19.2468L25.0828 19.262L25.098 19.3227L25.1101 19.3288L25.1435 19.4199L25.1617 19.423V19.4685H25.1769L25.1921 19.5262L25.2073 19.5323L25.4806 19.9089V19.9393L25.5566 20.0091V20.0395L25.6204 20.0942V20.1215L25.6659 20.158V20.1853L25.6993 20.2096V20.24L25.7449 20.2764V20.3068L25.7783 20.322L25.7935 20.3858L25.8238 20.404L25.8573 20.4951L25.8876 20.5194L25.9028 20.5771L25.918 20.5801L25.9393 20.6409H25.9544V20.6864H25.9696L25.9879 20.7502L26 20.7533L26.0152 20.8262L26.0334 20.8292L26.3007 21.2088V21.2392L26.3797 21.3091V21.3364L26.4282 21.3759V21.4032L26.4708 21.4427V21.47L26.5042 21.4883L26.5254 21.5369L26.5406 21.5399V21.5672L26.571 21.5855L26.5862 21.6492L26.6135 21.6675L26.65 21.7616H26.6651V21.789L26.6803 21.792V21.8254H26.6986V21.8558L26.7137 21.8588L26.7441 21.9499L26.7593 21.953V21.9955L26.7745 21.9985V22.0259L26.7897 22.0289L26.7957 22.0714L26.8109 22.0744V22.1048L26.8261 22.1079V22.1473L26.8413 22.1534V22.1929L26.8565 22.199V22.2415L26.8717 22.2445L26.9658 22.3903L27.0448 22.5057L27.06 22.5088L27.0782 22.5543L27.1238 22.5938V22.6181L27.1602 22.6424V22.6697L27.2027 22.7062V22.7335L27.2331 22.7548L27.2513 22.8034H27.2665L27.2847 22.8641L27.3181 22.8884V22.9158L27.3485 22.9492V22.9795H27.3667V23.0099L27.3759 23.0129L27.3789 23.0433L27.4123 23.0615V23.1041L27.4275 23.1071V23.1344L27.4427 23.1405L27.4579 23.1982L27.473 23.2013V23.2468H27.4882V23.2772H27.5034L27.5247 23.3561H27.5399V23.3987L27.5551 23.4017L27.7434 23.7388L27.8041 23.7905V23.8239L27.8557 23.8603V23.8877L27.8861 23.9089V23.9363L27.9954 24.1155L28.0258 24.1337V24.164L28.0623 24.2005V24.2248L28.0774 24.2309V24.2582L28.0957 24.2612V24.2946H28.1109V24.3189L28.123 24.322L28.1564 24.4161L28.1716 24.4222L28.4389 24.7988L28.4723 24.8505H28.4875V24.8778L28.5543 24.9294V24.9628L28.5968 25.0023V25.0296L28.6484 25.0661V25.0934L28.6788 25.1177V25.1451L28.7092 25.1633L28.7274 25.2088L28.7426 25.2119L28.7578 25.2757L28.7882 25.2939L28.8033 25.3546L28.8823 25.5095H28.9066L28.9036 25.5247L28.855 25.546V25.5581L28.8276 25.5551V25.5703L28.7912 25.5612L28.7669 25.6006L28.7456 25.5976V25.628L28.7365 25.6249L28.7122 25.6492L28.6849 25.6462L28.6697 25.6857L28.6241 25.7221L28.6029 25.7161V25.7343L28.5756 25.7252V25.7404L28.53 25.7616V25.789L28.4996 25.8011V25.8284L28.4358 25.8618L28.3569 25.9196V25.9469L28.3417 25.9438V25.9742L28.2961 25.9955V26.0076L28.2627 26.0046L28.2475 26.0319L28.1838 26.035L28.0258 26.0775L27.9803 26.1109V26.1261L27.9499 26.12V26.1322L27.9165 26.1261L27.8861 26.1656L27.8557 26.1625L27.8375 26.1838H27.8041L27.713 26.2628L27.6826 26.2597L27.634 26.3083L27.5885 26.3144L27.5702 26.3539L27.5247 26.3599V26.3903L27.4761 26.4268L27.4639 26.4207V26.4359L27.4153 26.445L27.4032 26.4662L27.3516 26.4602L27.3394 26.4875L27.309 26.4814V26.4966L27.2756 26.4905V26.5027L27.2118 26.4905V26.5057L27.1147 26.5179V26.5331L27.0691 26.524L27.0721 26.5422L27.0418 26.5331L27.0235 26.5604L26.9598 26.5634L26.7957 26.6697L26.5801 26.773L26.2217 26.9492L26.1731 26.9826L25.9879 27.1527L25.9423 27.1861L25.7995 27.2043L25.7692 27.2407L25.6264 27.259L25.6112 27.2863H25.5475L25.5201 27.3258L25.4867 27.3227L25.4715 27.347L25.4047 27.3501L25.3743 27.3865L25.3136 27.4199L25.2832 27.4139V27.4412L25.2529 27.4351L25.2194 27.4776L25.183 27.4685L25.1891 27.4837L25.1557 27.4776V27.4898L25.1223 27.5019L25.1253 27.5293L25.0949 27.5384V27.5536L25.0311 27.5566L25.0159 27.5779L24.694 27.6082L24.5118 27.3774L24.4632 27.341L24.448 27.2984L24.3812 27.2407V27.2134L24.3356 27.1709V27.1496L24.284 27.1071V27.0798L24.2536 27.0585V27.0281L24.2202 27.0099L24.205 26.9522L24.1746 26.9279L24.1595 26.8702L24.1443 26.8672L24.1291 26.8064L24.1139 26.8003V26.776L24.0957 26.77L24.0683 26.7396L24.0592 26.7366L23.9134 26.5422L23.798 26.4025V26.3842L23.7312 26.3326V26.3083L23.5794 26.1443V26.117L23.5399 26.0653V26.038L23.5095 26.0167V25.9894L23.47 25.9681V25.9438L23.4427 25.9196V25.8922L23.4123 25.874V25.8436L23.3789 25.8224V25.792H23.3637L23.3455 25.7312L23.3151 25.71L23.2969 25.6492H23.2847L23.224 25.552L23.2088 25.549V25.5035H23.1967L23.1784 25.4397L23.1602 25.4366L22.8626 25.0236V24.9962L22.7866 24.9264V24.896L22.738 24.8596V24.8292L22.6895 24.7927V24.7654L22.6591 24.7472V24.7138L22.6287 24.6956L22.6074 24.65L22.5953 24.647L22.5619 24.5528L22.5315 24.5346L22.2156 23.9757L22.1974 23.9271L22.0729 23.8057V23.7753L22.0091 23.7237V23.6933L21.9453 23.6386V23.6082L21.915 23.587L21.8967 23.5414H21.8816V23.5141L21.8512 23.4928V23.4625L21.8178 23.4442V23.4139L21.7904 23.3926V23.3683L21.7084 23.2529V23.2407L21.7175 23.2438L21.7145 23.1709Z" fill="#B2C23E"/>
<path d="M24.2901 17.8983V17.9165L24.2718 17.8983H24.2901Z" fill="#81BB45"/>
<path d="M21.7084 23.2407H21.6963V23.2346L21.7084 23.2377V23.2407Z" fill="#81BB45"/>
<path d="M21.6325 23.1131V23.0706L21.6173 23.0676V23.0372L21.6021 23.0342V23.0068L21.5718 22.9856V22.9582L21.4898 22.8823V22.8671L21.4442 22.8459V22.8155L21.4108 22.8125L21.3956 22.7699L21.2832 22.6576V22.6272L21.2225 22.5725V22.5452L21.1557 22.4905V22.4601L21.1101 22.4207V22.3903H21.0919L21.0767 22.3447L21.0281 22.3083L21.0008 22.2172L20.9643 22.1929V22.1655L20.9339 22.1321V22.0987H20.9188V22.0653H20.9005V22.038L20.8853 22.0349V22.0046L20.8671 22.0015V21.9742L20.855 21.9681L20.8216 21.877L20.8064 21.874V21.8314L20.7882 21.8284V21.8011L20.7699 21.792L20.5938 21.5459V21.5186L20.5664 21.4973V21.4822L20.5361 21.4761L20.5178 21.4457L20.4692 21.4093V21.3759L20.4024 21.3242V21.2908L20.3386 21.2392V21.2088L20.3113 21.1906L20.2931 21.1298L20.2597 21.1086V21.0782L20.2293 21.057L20.1989 20.9658L20.1655 20.9446L20.1473 20.8838L20.1139 20.8626V20.8201L20.1017 20.817V20.7897L20.0835 20.7866V20.7563L20.0683 20.7532V20.7259L20.0562 20.7198L20.0197 20.6287L20.0046 20.6257V20.5831L19.9894 20.5801V20.5497L19.9711 20.5467L19.7312 20.1397V20.1154L19.6522 20.0425V20.0091L19.5885 19.9575L19.5733 19.9089L19.5429 19.8876L19.5216 19.8299L19.4761 19.7904L19.4427 19.6963L19.4123 19.6781V19.6507L19.3819 19.6112V19.5869L19.3607 19.5809V19.5505H19.3516V19.5232L19.3364 19.5171V19.4898L19.3181 19.4867L19.2847 19.3926L19.2665 19.3895L19.2513 19.2984H19.2361L19.221 19.265L19.2058 19.2164L19.1055 19.0251L19.0569 18.9461L19.0266 18.9431V18.9279L18.981 18.8884V18.858L18.9446 18.8368V18.8094L18.896 18.7699V18.7456L18.8686 18.7396L18.8504 18.691L18.8352 18.6879L18.82 18.6424L18.7866 18.6211L18.7684 18.5604L18.7259 18.5209L18.6955 18.4298L18.6591 18.4085V18.3812L18.6257 18.3447V18.3174H18.6135V18.284H18.5983V18.2536L18.5801 18.2475L18.5771 18.2172H18.5649V18.1898L18.5497 18.1868L18.5133 18.0926H18.4981V18.0501L18.4829 18.044V18.0015L18.4677 17.9985V17.9529H18.4495V17.9074H18.4343V17.8649L18.4191 17.8588V17.8163L18.407 17.8102L18.4009 17.7677L18.3888 17.7646L18.3827 17.71L18.3675 17.7039V17.6462L18.3523 17.6431L18.3493 17.5885L18.3371 17.5854L18.3189 17.4093L18.3007 17.4032L18.2825 17.1086H18.2703L18.2794 16.7775L18.2976 16.7806L18.3219 16.4951L18.4738 16.0486H18.489L18.5224 15.9666L18.5376 15.9696V15.9423L18.5528 15.9453V15.915L18.568 15.918V15.8937H18.5862V15.8664H18.6014V15.839L18.6317 15.8147L18.6257 15.7844L18.6591 15.7722L18.6955 15.6963L18.738 15.675L18.7502 15.6204L18.7836 15.6112L18.7988 15.5718H18.817L18.8322 15.5323L18.8656 15.5414L18.896 15.4867L18.9051 15.4898V15.4594L18.9841 15.3895L19.0175 15.3956V15.3774L19.0478 15.3713V15.3409L19.0964 15.3379V15.3075L19.1572 15.2923L19.2361 15.2164L19.2635 15.2225V15.2103L19.3455 15.18L19.3424 15.1526L19.388 15.1435V15.1314L19.4396 15.1253L19.4487 15.101L19.5156 15.0949L19.549 15.0615L19.6401 15.0463L19.6583 15.019L19.6856 15.0281L19.7191 15.0038L19.7525 15.0099V14.9947L19.7828 15.0008V14.9856L19.8132 14.9917L19.8284 14.9674L19.8922 14.9613V14.9522L19.9803 14.937V14.9218L20.0319 14.9309L20.9765 14.9188L21.4806 15.0281V15.0372L21.6507 15.0858L22.0152 15.2559L22.1093 15.2863V15.3015L22.1397 15.3075V15.3227L22.2825 15.3926L22.2976 15.426L22.328 15.432L22.3614 15.4655L22.3948 15.4715V15.4867L22.4252 15.4898L22.4434 15.5232L22.4738 15.5292V15.5444L22.5011 15.5475L22.5406 15.5869L22.568 15.59V15.6052L22.6166 15.6264L22.6317 15.6598L22.7289 15.7054L22.7441 15.7388L22.7927 15.7601V15.7722L22.8352 15.7996V15.8238L22.9142 15.8876V15.8998L22.9506 15.9059L23.0296 16.0061L23.0934 16.0486V16.0759L23.1238 16.082L23.139 16.1276L23.2513 16.2369V16.2673L23.2969 16.3037V16.3311L23.3455 16.3705V16.3979L23.3789 16.4191L23.3941 16.4677L23.4579 16.5194V16.5497L23.5095 16.5892L23.5399 16.6803L23.5702 16.7016V16.732L23.6036 16.7654V16.7927L23.6158 16.7958V16.8261L23.634 16.8292V16.8565L23.6522 16.8626V16.8899L23.6644 16.8929V16.9233H23.6857L23.7312 17.0205L24.0197 17.5216V17.549L24.0349 17.5551L24.0683 17.6037L24.1169 17.6401V17.6705L24.1473 17.6917V17.7221L24.1959 17.7555L24.2111 17.8193L24.2566 17.8557L24.2718 17.8922V17.8983L24.2901 17.9165V17.9438L24.2779 17.9742L24.2597 17.9712L23.8345 19.18L23.8041 19.1708L23.7403 19.3075L23.713 19.3014L23.634 19.4624L23.4488 19.8481L23.4214 19.8542L23.4062 19.997L23.388 19.9939L23.3424 20.1913L23.3121 20.1853L23.2969 20.3128L23.2696 20.3068L23.2513 20.404L23.221 20.3979L23.2058 20.4829L23.1754 20.4768L23.0691 20.7168L23.0387 20.7107L23.0205 20.7958L22.9901 20.7897L22.9567 20.8838L22.9324 20.9233L22.8626 20.9962L22.8352 21.0357L22.6834 21.3364L22.6409 21.5186L22.6044 21.5308V21.5854L22.5953 21.5824V21.6553L22.5619 21.6614L22.5467 21.7768L22.5163 21.7859L22.4981 21.8983L22.4708 21.9074L22.4556 22.0076L22.4252 21.9985L22.41 22.0866L22.3766 22.0926V22.123L22.3614 22.1169L22.3432 22.1898L22.3159 22.1989L22.3189 22.2415L22.2885 22.2475V22.2931L22.2248 22.3964L22.1913 22.3903L22.1306 22.5239L22.0972 22.5178L22.0395 22.6393L21.7904 23.0129L21.7145 23.1708L21.7175 23.2437L21.7084 23.2407V23.2377L21.6963 23.2346L21.6507 23.1162L21.6325 23.1131Z" fill="#009194"/>
<path d="M34.3098 29.4215L34.3189 29.4366L34.2946 29.4306L34.2885 29.4123L34.3098 29.4093V29.4215Z" fill="#81BB45"/>
<path d="M37.3166 24.8292L37.3318 24.8322V24.8656L37.2741 24.7927L37.3166 24.8292Z" fill="#81BB45"/>
<path d="M34.2247 29.3455L34.2126 29.2848L34.164 29.2483L34.1488 29.1724L34.1336 29.1694L34.0668 29.0691L33.8633 28.9294V28.8991L33.8147 28.8778L33.7995 28.8444L33.7631 28.8414L33.7175 28.7745L33.6841 28.7685L33.6082 28.6773L33.5717 28.6287L33.5444 28.6227L33.4928 28.5407L33.4624 28.5376L33.3834 28.4222L33.3652 28.4161V28.3858L33.268 28.2977V28.2704L33.2407 28.2461V28.2157L33.2073 28.1975V28.1701L33.1435 28.1398L33.0281 27.8907L33.0008 27.8816L32.8641 27.5839L32.8337 27.5597V27.5323L32.8185 27.5293L32.8033 27.4382L32.7851 27.4351V27.3926L32.7699 27.3896V27.347L32.7547 27.344V27.3015L32.7396 27.2985L32.7365 27.2377H32.7244L32.7031 27.1436L32.6879 27.1405V27.1132L32.6727 27.1071V27.0524L32.6576 27.0494L32.6545 26.9613L32.6393 26.9583L32.6363 26.8824H32.6241L32.6211 26.7639L32.6059 26.7609L32.3721 25.9651L32.3569 25.8163L32.3417 25.8133V25.7829H32.3265L32.3235 25.6796L32.29 25.6553V25.5004L32.2566 25.4822L32.2506 25.0236L32.284 25.0205V24.8535L32.3143 24.8626L32.3265 24.7229H32.3417V24.6652L32.3569 24.6682V24.5923L32.3872 24.5862V24.5285L32.4206 24.5224L32.4358 24.4222L32.4692 24.4283L32.5087 24.2734L32.5421 24.2795V24.237L32.5725 24.243L32.7001 24.0486L32.7304 24.0547L32.779 23.9606L32.8094 23.9666V23.9363L32.8398 23.9393L32.9188 23.8391L32.9461 23.8452V23.8148L33.0008 23.8269L33.0463 23.7905L33.0402 23.7631L33.0736 23.7692V23.7388L33.104 23.7449L33.1374 23.7085L33.1648 23.7115L33.183 23.6872L33.2285 23.6781V23.6508L33.3075 23.6082L33.4503 23.59V23.5627L33.6082 23.5505V23.5171L33.7479 23.4989L33.7995 23.5111V23.4959L33.8299 23.4989V23.4837L33.8876 23.4959L33.9089 23.4716L34.079 23.4898L34.0911 23.4625L34.2369 23.4898L34.2551 23.4625L34.5042 23.5111L34.5406 23.4989L34.9628 23.5961V23.6265L35.3151 23.7328V23.7631L35.3941 23.7753V23.8057L35.6522 23.8846L36.2718 24.2187L36.3781 24.2795V24.2947L36.4419 24.3068L36.4571 24.3341L36.5209 24.3493V24.3645L36.5664 24.3736V24.3858L36.6181 24.3949V24.4131L36.6819 24.4222V24.4374L36.9036 24.5346V24.565L37.2164 24.7411V24.7685L37.2741 24.7928L37.3318 24.8657V24.8748L37.3652 24.8839L37.3804 24.9598H37.3986V25.0205L37.4108 25.0236V25.0479L37.432 25.054V25.0995H37.4472V25.1633H37.4624V25.1906L37.4776 25.1937V25.2666L37.511 25.2848L37.514 25.3911L37.5444 25.4123V25.546L37.5748 25.5581L37.5778 25.8072L37.6143 26.0076L37.5991 25.9985V26.0593L37.5839 26.0562V26.3083L37.5535 26.3144V26.445L37.5262 26.4511V26.5543L37.4928 26.5634V26.6394L37.4776 26.6363V26.6637L37.4624 26.6606V26.7183L37.4503 26.7153V26.7457L37.4351 26.7426L37.4169 26.8429L37.4017 26.8368L37.3895 26.9067L37.3561 26.9036V26.9613L37.3257 26.9552V27.013L37.2923 27.0069L37.265 27.1041L37.2316 27.098L37.2043 27.177L37.1557 27.1982V27.2438L37.0919 27.3197L37.0585 27.3136L37.0615 27.341L37.0311 27.3379V27.3683L37.0038 27.3592L36.8884 27.4989L36.858 27.4959V27.5232L36.7153 27.5839V27.6113L36.6211 27.6386V27.669L36.3569 27.8664L36.3235 27.8603L36.3265 27.9059L36.2961 27.912V27.9423L36.2445 27.9636V27.9879L36.1959 28.0122V28.0395L36.1382 28.0729L36.1078 28.1094V28.1398L36.0774 28.1337L36.0137 28.1944L35.9985 28.1914V28.2218L35.9499 28.24L35.9347 28.2673L35.9043 28.2612L35.4032 28.6318L35.388 28.6287L35.3728 28.6713L35.3424 28.6804V28.7077L35.3121 28.7168V28.7472L35.2787 28.7563V28.7836L35.2301 28.8049V28.8383L35.1845 28.8535L35.1693 28.896L35.1055 28.9294L35.0114 28.9993L35.0144 29.0266L34.9628 29.0357L34.8717 29.1208L34.8413 29.1117L34.8231 29.139L34.7927 29.1299L34.7502 29.1815L34.6986 29.1876L34.6803 29.2149L34.656 29.2089L34.6348 29.2332L34.6074 29.2301L34.5923 29.2544L34.5619 29.2483V29.2635L34.5163 29.2696L34.4981 29.2969L34.4647 29.2909L34.4343 29.3273L34.4039 29.3212L34.3189 29.4063L34.325 29.4366H34.3189L34.3098 29.4215V29.4093L34.2885 29.4123L34.246 29.3486L34.2247 29.3455Z" fill="#59B35A"/>
<path d="M24.691 27.6143L24.6849 27.6082H24.694L24.7001 27.6143H24.691Z" fill="#81BB45"/>
<path d="M25.0311 27.5566L25.0949 27.5536V27.5384L25.1253 27.5293L25.1222 27.5019L25.1557 27.4898V27.4776L25.1891 27.4837L25.183 27.4685L25.2194 27.4776L25.2528 27.4351L25.2832 27.4412V27.4138L25.3136 27.4199L25.3743 27.3865L25.4047 27.3501L25.4715 27.347L25.4867 27.3227L25.5201 27.3258L25.5475 27.2863H25.6112L25.6264 27.259L25.7692 27.2407L25.7995 27.2043L25.9423 27.1861L25.9879 27.1526L26.1731 26.9826L26.2217 26.9492L26.5042 26.7821L26.5558 26.7912V26.7639L26.7714 26.6606L26.9598 26.5634L27.0235 26.5604L27.0418 26.5331L27.0721 26.5422L27.0691 26.5239L27.1147 26.5331V26.5179L27.2118 26.5057V26.4905L27.2756 26.5027V26.4905L27.309 26.4966V26.4814L27.3394 26.4875L27.3516 26.4602L27.4032 26.4662L27.4153 26.445L27.4639 26.4359V26.4207L27.4761 26.4268L27.5247 26.3903V26.3599L27.5702 26.3539L27.5885 26.3144L27.634 26.3083L27.6826 26.2597L27.713 26.2627L27.8041 26.1838H27.8375L27.8557 26.1625L27.8861 26.1656L27.9165 26.1261L27.9499 26.1321V26.12L27.9803 26.1261V26.1109L28.0258 26.0775L28.1838 26.035L28.4358 25.8618L28.4996 25.8284V25.8011L28.53 25.7889V25.7616L28.5756 25.7403V25.7252L28.6029 25.7343V25.7161L28.6241 25.7221L28.6697 25.6857L28.6849 25.6462L28.7122 25.6492L28.7365 25.6249L28.7456 25.628V25.5976L28.7669 25.6006L28.7912 25.5612L28.8276 25.5703V25.5551L28.855 25.5581V25.546L28.9036 25.5247L28.9066 25.5095H28.9188V25.5126V25.546L28.9856 25.5855V25.6128L29.1101 25.71V25.7403L29.1435 25.7434V25.7738L29.1769 25.7829V25.8072L29.2073 25.8163L29.2103 25.8436L29.2407 25.8527L29.3166 25.9803L29.35 25.9864L29.3865 26.0623L29.4199 26.0744V26.0987L29.4472 26.1048L29.5596 26.284L29.7874 26.5331V26.5634L29.8481 26.5877V26.6151L29.9271 26.6606V26.688L29.9575 26.694V26.7244L29.9909 26.7305L29.9939 26.7608L30.0729 26.8459L30.1063 26.852V26.8823L30.1367 26.8884V26.9157L30.167 26.9218L30.2794 27.1041L30.3128 27.1071V27.1405L30.3432 27.1435V27.1861L30.3736 27.1952L30.7897 27.6629V27.6933L30.8231 27.6993L30.8717 27.7783L30.9021 27.7844L30.9051 27.8178L30.9355 27.8239L30.9841 27.9028L31.0144 27.9059V27.9393L31.0448 27.9423L31.0964 28.0547L31.1298 28.0608V28.0942L31.1602 28.0972L31.2088 28.2035L31.2392 28.2126V28.2552L31.2696 28.2612L31.2878 28.3068L31.303 28.3098L31.3212 28.3858L31.3516 28.407V28.4374L31.385 28.4586V28.5012L31.4184 28.5194L31.4336 28.6135L31.467 28.6287V28.6925H31.4791L31.4973 28.7684L31.5308 28.7745L31.549 28.9233L31.5642 28.9294V28.9567H31.5793V29.0448L31.6128 29.0661L31.6948 29.3455L31.7282 29.3485L31.7585 29.4731L31.7889 29.4761L31.8102 29.5824L31.8405 29.5885L31.8588 29.7373L31.8891 29.7464L31.9408 30.2597H31.9256L31.9317 30.4905L31.9134 30.4875V30.5908L31.8983 30.5877V30.6758L31.8709 30.6819L31.8588 30.7973L31.8254 30.7912L31.7494 31.022L31.713 31.016L31.5945 31.2316L31.5611 31.2377L31.5429 31.2347L31.5459 31.2772L31.5125 31.2741V31.2893L31.4518 31.3227L31.4032 31.3531L31.4093 31.3987L31.2938 31.4321V31.4594L31.2878 31.4564L31.2817 31.4624H31.2787L31.2513 31.4776H31.2392L31.2118 31.4989L31.1815 31.4959V31.508L31.1481 31.5019V31.5171L31.1177 31.511L31.1025 31.5384L31.0084 31.5505L30.9901 31.5748L30.9628 31.5687L30.9476 31.5961L30.8656 31.6416L30.8231 31.6386V31.669L30.5406 31.6872V31.7145L30.2369 31.6902V31.7054L30.2065 31.6993V31.7115L30.003 31.6781L29.4351 31.511V31.4807L29.3075 31.4473L29.2923 31.4138L29.2559 31.4078V31.3896L29.1769 31.3774V31.3592L29.1283 31.3531V31.3379L28.9734 31.3136L28.9582 31.2802L28.7821 31.2468L28.7669 31.2164L28.6545 31.1921V31.18L28.5938 31.1678V31.1526L28.5482 31.1435V31.1284L28.4632 31.1162L28.448 31.0828L28.369 31.0646V31.0403L28.3052 31.0251L28.2901 30.9947L28.1807 30.9613V30.9309L28.1139 30.9188V30.8884L28.0501 30.8641V30.852L28.0015 30.8368V30.8246L27.9256 30.7821V30.7517L27.874 30.7426V30.7153L27.6219 30.4905L27.5915 30.4875V30.4571L27.5095 30.3691L27.4761 30.366V30.3356L27.4487 30.3296V30.3022L27.142 30.0562L27.0782 30.0107L27.0661 29.9833L27.0326 29.9742V29.9621L26.9992 29.956V29.9438L26.9355 29.8892L26.7259 29.7464V29.7191L26.6986 29.713V29.6796L26.65 29.6735V29.6432L26.6135 29.6371V29.6097L26.4434 29.4184L26.41 29.4123V29.382L26.1033 29.0661V29.0357L26.0456 29.0236V28.9962L25.9939 28.9689V28.9567L25.9636 28.9507L25.9453 28.9203L25.8998 28.9082L25.8815 28.8778L25.7722 28.814V28.7836L25.7418 28.7776V28.7472L25.6598 28.7047V28.6773L25.6295 28.6682L25.6264 28.6378L25.4989 28.5437V28.5133L25.4655 28.5103L25.3895 28.3797L25.3561 28.3706V28.3432L25.3257 28.3372L25.2893 28.2582L25.2589 28.2521V28.2248L25.2286 28.2157V28.1762L25.1982 28.1519V28.1246L25.183 28.1215L25.1496 28.0426L25.1131 28.0365V27.994L25.0828 27.9848L25.0342 27.9362L25.019 27.9028V27.8907L24.9734 27.8785V27.8482L24.8428 27.7692V27.7419L24.7183 27.6568V27.6295L24.691 27.6143H24.7001L24.694 27.6082L25.0159 27.5779L25.0311 27.5566Z" fill="#5CA038"/>
</g>
<defs>
<clipPath id="clip0_2_242">
<rect width="44" height="27.3349" fill="white" transform="translate(2 10.3326)"/>
</clipPath>
</defs>
</svg>
