<svg width="48" height="48" viewBox="0 0 48 48" fill="none" xmlns="http://www.w3.org/2000/svg">
<g clip-path="url(#clip0_1_210)">
<path d="M44 38.2645C43.9997 39.0144 43.8517 39.7568 43.5644 40.4495C43.2771 41.1421 42.8562 41.7714 42.3257 42.3014C41.7952 42.8314 41.1655 43.2517 40.4726 43.5383C39.7797 43.8249 39.0371 43.9722 38.2872 43.9717H9.71361C8.19917 43.9724 6.74649 43.3715 5.67503 42.3012C4.60356 41.2309 4.00105 39.7789 4 38.2645V9.73306C4.00127 8.21884 4.60389 6.76711 5.67536 5.69714C6.74682 4.62717 8.19938 4.02656 9.71361 4.02741H38.2872C39.0369 4.02688 39.7795 4.17406 40.4724 4.46052C41.1652 4.74698 41.7949 5.16713 42.3254 5.69695C42.8559 6.22678 43.2768 6.85592 43.5641 7.54844C43.8515 8.24096 43.9996 8.9833 44 9.73306V38.2645Z" fill="#FFE400"/>
<path d="M32.5792 27.9954C32.3998 26.6031 31.7038 25.329 30.629 24.426C30.47 24.286 30.2974 24.1556 30.1065 24.0005C30.2656 23.8812 30.3976 23.7897 30.5209 23.6871C31.2944 23.0468 31.8919 22.2199 32.257 21.2844C32.6028 20.3999 32.7125 19.4406 32.5752 18.5008C32.423 17.3577 31.9178 16.2905 31.1301 15.4483C30.5687 14.8232 29.875 14.3309 29.0996 14.0072C28.3465 13.7023 27.5404 13.5496 26.728 13.5579H17.6231C17.5603 13.5543 17.4974 13.5543 17.4346 13.5579C17.3347 13.5624 17.2407 13.6059 17.1725 13.6791C17.1044 13.7523 17.0677 13.8492 17.0703 13.9492C17.0703 14.0128 17.0703 14.0756 17.0703 14.1385V33.8108C17.0703 33.9094 17.0648 34.0088 17.0703 34.1074C17.0744 34.1889 17.1069 34.2665 17.162 34.3266C17.2172 34.3867 17.2917 34.4257 17.3726 34.4367C17.4351 34.4443 17.4981 34.4467 17.5611 34.4439H26.9904C27.94 34.4476 28.8735 34.198 29.6945 33.7209C30.8676 33.0617 31.7731 32.0128 32.2539 30.7559C32.601 29.8798 32.7131 28.9282 32.5792 27.9954ZM25.333 28.7032H23.6318V19.3184H25.3139C25.3139 19.3184 25.3075 19.3136 25.3139 19.3136V19.3184H25.333V28.7032Z" fill="#1E1719"/>
</g>
<defs>
<clipPath id="clip0_1_210">
<rect width="40" height="39.9451" fill="white" transform="translate(4 4.02747)"/>
</clipPath>
</defs>
</svg>
