<svg width="48" height="48" viewBox="0 0 48 48" fill="none" xmlns="http://www.w3.org/2000/svg">
<path d="M45.2397 24.4237L44.8623 24.1629C44.1241 23.4369 43.2476 22.8951 42.2947 22.5756C41.3417 22.2562 40.3355 22.167 39.3472 22.3143C37.6267 22.468 35.9689 23.0839 34.5242 24.1061V24.0154C34.5377 23.3024 34.5867 22.5907 34.6709 21.8833C34.7339 21.1462 34.8072 20.4091 34.8072 19.7059C34.8295 19.0327 34.7261 18.3616 34.5032 17.7326C34.4765 17.6582 34.4286 17.595 34.3663 17.5521C34.3041 17.5093 34.2308 17.4891 34.1572 17.4945C33.3704 17.5745 32.6105 17.8459 31.9344 18.2883L31.7666 18.6739C31.7638 19.7532 31.6548 20.829 31.4416 21.8833C31.4184 21.9757 31.3904 22.0666 31.3577 22.1555C31.0958 24.8699 31.0958 27.6065 31.3577 30.3209C31.3577 30.5477 31.8086 30.8993 32.1231 31.0354C32.8435 31.0545 33.5591 30.9035 34.2201 30.5931H34.4612C34.5093 30.5863 34.5556 30.5689 34.5973 30.5421C34.639 30.5153 34.6751 30.4796 34.7036 30.4371C34.732 30.3946 34.7522 30.3463 34.7628 30.2952C34.7734 30.244 34.7743 30.191 34.7653 30.1395V29.4703C35.0522 28.3062 35.623 27.2468 36.4179 26.403C37.2129 25.5591 38.2028 24.9616 39.2843 24.6732C39.8248 24.5466 40.3866 24.5764 40.9131 24.7596C41.4396 24.9428 41.9121 25.2729 42.283 25.7165C42.5231 26.844 42.3462 28.0283 41.7902 29.0167C41.007 30.4036 39.7908 31.4415 38.3616 31.9426C36.6822 32.5899 34.8984 32.86 33.1192 32.7365C33.0248 32.6798 31.1795 31.3303 31.1795 31.3303C29.4737 29.9211 27.6231 28.73 25.6644 27.7806C25.2143 27.5089 24.7925 27.1858 24.4062 26.8166L24.228 26.6465C23.1795 25.7166 21.1349 24.2649 19.5098 23.0968L18.6395 22.4504V22.2576C18.6395 22.2009 19.688 21.5431 19.688 21.5431C20.4854 21.1172 21.2318 20.5878 21.9108 19.9667L22.11 19.842L25.6539 17.6646C29.051 15.6459 32.9095 13.3551 34.9331 11.0869L35.0274 10.7353V10.4291C35.1476 10.0118 35.1476 9.56492 35.0274 9.14764C35.0142 9.07478 34.9812 9.00782 34.9326 8.95531C34.8841 8.9028 34.8222 8.86712 34.7548 8.85276C33.1716 8.68265 31.1375 9.70333 29.2817 11.5859C28.9385 11.9277 28.554 12.2176 28.1389 12.4478L27.8558 12.6066C25.7588 13.8654 21.1979 16.9614 18.7863 18.6399C19.0143 15.2376 19.4239 11.8524 20.0131 8.5012L19.9501 8.10427L19.6985 7.60527L19.5098 7.24235C19.1467 7.05084 18.7284 7.02233 18.346 7.16299L17.8637 7.35577L17.2241 7.60527C17.1631 7.61929 17.1063 7.6494 17.0588 7.69293C17.0112 7.73647 16.9743 7.79207 16.9515 7.85477C15.6454 11.6892 14.8579 15.7075 14.6133 19.7853C12.8456 18.5856 11.0185 17.4915 9.14022 16.5078H9.0144C8.55522 16.384 8.12142 16.1686 7.73524 15.8727L6.86499 15.2603L5.52293 14.3304L5.16644 14.2396C4.38456 14.507 3.6897 15.0107 3.16382 15.6913C3.1238 15.7633 3.1021 15.8454 3.10092 15.9294C3.11074 16.0449 3.13182 16.159 3.16382 16.2697L3.22674 16.5645L3.28965 16.746C4.47876 17.8246 5.78503 18.7424 7.17954 19.4791L9.0144 20.5338L11.8348 22.1896L12.3171 22.6092L12.6422 22.8133H12.7051C11.9502 23.3463 7.58845 26.5104 7.58845 26.5104L4.84141 28.5517C4.33796 28.8502 3.81995 29.119 3.28965 29.3569C2.77966 29.5501 2.34898 29.9316 2.07339 30.4343L2 30.6044L2.07339 30.7178L2.2831 30.8879L2.5557 31.0808L2.85976 31.2962L3.13237 31.3529C4.00517 31.2249 4.84804 30.921 5.61729 30.457C6.82306 29.8786 10.0943 27.7465 11.4993 26.8393L12.097 26.4424C12.3814 26.4008 12.6459 26.2616 12.8519 26.0454C13.2474 25.7292 13.6685 25.4521 14.1101 25.2175C14.1101 25.2175 14.3407 25.0815 14.5399 24.968V25.1495C14.5155 28.6979 14.7751 32.2419 15.3158 35.7418V35.8552C15.6397 36.6326 15.8824 37.4466 16.0393 38.2821L16.5635 40.2101L16.7208 40.3916C17.2777 40.7524 17.917 40.9371 18.5661 40.9246H18.7234L18.8178 40.6864C18.8696 40.395 18.8942 40.0986 18.8912 39.8018C18.8912 39.4503 18.8912 39.0647 18.8912 38.5884V37.8966C18.692 34.6644 18.5032 29.958 18.5032 26.896V26.6465L21.2293 28.5064C25.0039 31.1488 30.6657 35.1634 34.1572 36.2181C34.2439 36.2461 34.3358 36.2493 34.424 36.2274C34.5122 36.2056 34.5937 36.1594 34.6605 36.0934L35.1952 35.7305H35.2896C35.4074 35.6272 35.5012 35.4954 35.5631 35.3456C35.625 35.1959 35.6535 35.0324 35.646 34.8686C38.5504 34.7212 42.608 33.5077 44.7784 30.5591C45.5537 29.4904 45.9812 28.1749 45.9946 26.8166C46.041 25.9887 45.785 25.1742 45.2817 24.5484" fill="#FCAF17"/>
</svg>
