<svg width="48" height="48" viewBox="0 0 48 48" fill="none" xmlns="http://www.w3.org/2000/svg">
<g clip-path="url(#clip0_1_170)">
<path d="M2.0627 23.9295C2.04516 23.9349 2.02982 23.9459 2.01894 23.9607C2.00805 23.9755 2.00218 23.9934 2.00218 24.0118C2.00218 24.0301 2.00805 24.048 2.01894 24.0628C2.02982 24.0776 2.04516 24.0886 2.0627 24.0941L8.85002 28.5771L10.7937 19.4307L2.0627 23.9295Z" fill="#E72511"/>
<path d="M42.285 19.4229H40.5607C40.4548 19.4294 40.3511 19.456 40.2551 19.5012L31.6338 23.9373C31.5554 23.9373 31.5476 24.047 31.6338 24.1019L38.3035 28.4909C38.3949 28.5421 38.4968 28.5716 38.6014 28.5771H40.3178C40.4118 28.5771 40.4197 28.5771 40.3178 28.4909L33.4991 24.0078L42.285 19.5012C42.3555 19.462 42.3477 19.4229 42.285 19.4229Z" fill="#F08300"/>
<path d="M38.5778 19.4229H26.6099L24.6662 28.5771H36.6185C36.7125 28.5771 36.7203 28.5771 36.6185 28.4909L29.8155 24.0078L38.5543 19.5012C38.6797 19.462 38.6719 19.4229 38.5778 19.4229Z" fill="#E72511"/>
<path d="M45.9295 19.4229H44.213C44.1069 19.428 44.0029 19.4547 43.9074 19.5012L35.2861 23.9373C35.2077 23.9373 35.2077 24.047 35.2861 24.1019L41.9637 28.4909C42.0518 28.5429 42.1514 28.5725 42.2537 28.5771H43.9779C44.0641 28.5771 44.0798 28.5771 43.9779 28.4909L37.1671 24.0078L45.9138 19.5012C46.0235 19.462 46.0157 19.4229 45.9295 19.4229Z" fill="#FABE00"/>
<path d="M38.0527 13.435H9.90024C9.23034 13.4026 8.57027 13.606 8.03476 14.0098C7.49925 14.4136 7.12215 14.9922 6.96901 15.6452C6.89946 15.9554 6.92171 16.2792 7.03305 16.577C7.14439 16.8749 7.34 17.1339 7.59601 17.3224L17.7143 24L38.0919 13.5133C38.1468 13.4663 38.1389 13.435 38.0527 13.435Z" fill="#E72511"/>
<path d="M33.5853 34.4788L17.7221 24L4.76666 30.6854C4.43945 30.8572 4.15141 31.0949 3.92072 31.3836C3.69004 31.6722 3.52173 32.0056 3.42643 32.3627C3.15995 33.5775 3.84183 34.565 5.41717 34.565H33.5697C33.6637 34.565 33.6637 34.5258 33.5853 34.4788Z" fill="#E72511"/>
</g>
<defs>
<clipPath id="clip0_1_170">
<rect width="44" height="21.13" fill="white" transform="translate(2 13.435)"/>
</clipPath>
</defs>
</svg>
