<svg width="48" height="48" viewBox="0 0 48 48" fill="none" xmlns="http://www.w3.org/2000/svg">
<g clip-path="url(#clip0_1_14)">
<path d="M45.6806 23.9949C45.6826 28.3016 44.4072 32.512 42.0158 36.0936C39.6244 39.6753 36.2245 42.4672 32.2461 44.1162C28.2677 45.7652 23.8896 46.1971 19.6656 45.3574C15.4416 44.5177 11.5616 42.4441 8.51638 39.3989C5.47115 36.3536 3.39753 32.4736 2.55783 28.2497C1.71814 24.0257 2.15011 19.6476 3.79909 15.6692C5.44807 11.6908 8.23996 8.2908 11.8216 5.89941C15.4032 3.50802 19.6137 2.23265 23.9203 2.23462C29.6907 2.23727 35.224 4.53072 39.3043 8.611C43.3845 12.6913 45.678 18.2246 45.6806 23.9949Z" fill="white"/>
<path d="M23.9201 44.7267C28.0205 44.7267 32.0287 43.5107 35.438 41.2327C38.8473 38.9547 41.5046 35.7168 43.0737 31.9286C44.6429 28.1404 45.0534 23.9719 44.2535 19.9504C43.4536 15.9288 41.479 12.2348 38.5797 9.33537C35.6803 6.43599 31.9862 4.46149 27.9647 3.66155C23.9431 2.86161 19.7746 3.27217 15.9864 4.8413C12.1982 6.41044 8.96036 9.06768 6.68232 12.477C4.40429 15.8863 3.18837 19.8946 3.18837 23.9949C3.18837 29.4933 5.37261 34.7665 9.26056 38.6545C13.1485 42.5424 18.4217 44.7267 23.9201 44.7267Z" fill="#0083CA"/>
<mask id="mask0_1_14" style="mask-type:alpha" maskUnits="userSpaceOnUse" x="3" y="3" width="42" height="42">
<path d="M23.9201 44.7267C28.0205 44.7267 32.0287 43.5108 35.438 41.2328C38.8474 38.9548 41.5046 35.7169 43.0738 31.9287C44.6429 28.1404 45.0534 23.972 44.2535 19.9504C43.4536 15.9289 41.4791 12.2348 38.5797 9.33543C35.6803 6.43605 31.9862 4.46155 27.9647 3.66161C23.9431 2.86167 19.7747 3.27223 15.9864 4.84136C12.1982 6.4105 8.96037 9.06774 6.68234 12.4771C4.40431 15.8864 3.18839 19.8946 3.18839 23.995C3.18839 29.4934 5.37263 34.7666 9.26058 38.6545C13.1485 42.5425 18.4217 44.7267 23.9201 44.7267Z" fill="#0083CA"/>
</mask>
<g mask="url(#mask0_1_14)">
<path d="M23.99 34.0113C33.0976 34.0113 40.9069 36.5478 44.2524 40.1429C45.4094 37.4979 46.0045 34.6414 46 31.7544C46 25.9196 43.6821 20.3238 39.5563 16.198C35.4305 12.0722 29.8348 9.75439 24 9.75439C18.1652 9.75439 12.5694 12.0722 8.44364 16.198C4.31784 20.3238 1.99998 25.9196 1.99998 31.7544C1.99582 34.6404 2.58739 37.4961 3.73763 40.1429C7.07308 36.5478 14.8724 34.0113 23.99 34.0113Z" fill="#0083CA"/>
<path d="M23.99 34.0322C33.0776 34.0322 40.867 36.5487 44.2024 40.1239C45.3515 37.4977 45.9431 34.6617 45.9401 31.7952C45.9401 20.0013 36.1035 10.4144 23.97 10.4144C11.8366 10.4144 1.99997 20.0013 1.99997 31.7952C1.99601 34.6618 2.58775 37.498 3.73763 40.1239C7.11302 36.5487 14.8724 34.0322 23.99 34.0322Z" fill="#0085CB"/>
<path d="M23.99 34.0513C33.0477 34.0513 40.8171 36.5578 44.1425 40.093C45.2902 37.491 45.882 34.6781 45.8801 31.8343C45.8801 20.1303 36.0635 10.5933 23.99 10.5933C11.9165 10.5933 2.09985 20.1402 2.09985 31.8343C2.09564 34.6784 2.6876 37.4918 3.8375 40.093C7.15298 36.5578 14.9224 34.0513 23.99 34.0513Z" fill="#0086CC"/>
<path d="M23.98 34.0812C33.0177 34.0812 40.7771 36.5579 44.0926 40.0731C45.2348 37.508 45.8268 34.732 45.8302 31.9242C45.8302 20.32 36.0436 10.8229 23.99 10.8229C11.9364 10.8229 2.16976 20.32 2.16976 31.9242C2.16328 34.7449 2.75199 37.5353 3.89742 40.113C7.19292 36.5578 14.9423 34.0812 23.98 34.0812Z" fill="#0088CC"/>
<path d="M23.98 34.1012C32.9678 34.1012 40.7272 36.5578 44.0327 40.0431C45.1759 37.4893 45.7648 34.7222 45.7603 31.9242C45.7603 20.4099 36.0036 10.9528 23.98 10.9528C11.9564 10.9528 2.20971 20.3999 2.20971 31.9242C2.20572 34.7211 2.79098 37.4874 3.92737 40.0431C7.23286 36.5578 14.9623 34.1012 23.98 34.1012Z" fill="#0089CD"/>
<path d="M23.98 34.1212C32.9678 34.1212 40.6773 36.5579 43.9528 40.0131C45.0879 37.4817 45.6733 34.7384 45.6705 31.9641C45.6705 20.5397 35.9337 11.1425 23.9501 11.1425C11.9664 11.1425 2.23969 20.5497 2.23969 31.9641C2.23731 34.7373 2.81915 37.4799 3.94736 40.0131C7.27282 36.5579 14.9923 34.1212 23.98 34.1212Z" fill="#008BCE"/>
<path d="M23.98 34.1511C32.9678 34.1511 40.6373 36.5579 43.9528 39.9932C45.0866 37.4825 45.6721 34.7589 45.6704 32.0041C45.6704 20.6795 35.9637 11.3323 24.01 11.3323C12.0563 11.3323 2.34952 20.6795 2.34952 32.0041C2.34836 34.7578 2.93037 37.4806 4.05721 39.9932C7.31277 36.5579 15.0123 34.1511 23.98 34.1511Z" fill="#008DCF"/>
<path d="M23.97 34.1711C32.9578 34.1711 40.5874 36.5678 43.8729 39.9632C44.9988 37.4749 45.581 34.7751 45.5806 32.044C45.5806 20.8193 35.9038 11.512 23.97 11.512C12.0363 11.512 2.36951 20.8193 2.36951 32.044C2.36821 34.7752 2.95042 37.4752 4.07717 39.9632C7.35271 36.5678 15.0322 34.1711 23.97 34.1711Z" fill="#008ED0"/>
<path d="M23.97 34.1911C32.8879 34.1911 40.5475 36.5678 43.813 39.9332C44.9443 37.4714 45.5269 34.7932 45.5207 32.0839C45.5207 20.9491 35.8638 11.7017 23.97 11.7017C12.0763 11.7017 2.42944 20.9591 2.42944 32.0839C2.42383 34.7921 3.00289 37.4695 4.1271 39.9332C7.39265 36.5678 15.0522 34.1911 23.97 34.1911Z" fill="#0090D0"/>
<path d="M23.97 34.221C32.8579 34.221 40.4975 36.5678 43.763 39.9133C44.8851 37.47 45.4643 34.8125 45.4607 32.1239C45.4607 21.1389 35.8338 11.8815 23.97 11.8815C12.1062 11.8815 2.47934 21.0889 2.47934 32.1239C2.47952 34.8121 3.05855 37.4688 4.17704 39.9133C7.44258 36.5678 15.0722 34.221 23.97 34.221Z" fill="#0092D1"/>
<path d="M23.97 34.241C32.8379 34.241 40.4476 36.5678 43.7131 39.8833C44.8293 37.4627 45.4084 34.8293 45.4108 32.1638C45.4108 21.1788 35.8039 12.0612 23.97 12.0612C12.1362 12.0612 2.5293 21.2287 2.5293 32.1638C2.52948 34.8296 3.10871 37.4634 4.22696 39.8833C7.48252 36.5678 15.0921 34.241 23.97 34.241Z" fill="#0093D2"/>
<path d="M23.9601 34.261C32.808 34.261 40.4076 36.5778 43.6532 39.8534C44.7701 37.4578 45.3495 34.8469 45.3509 32.2038C45.3509 21.3586 35.764 12.231 23.9601 12.231C12.1562 12.231 2.58921 21.3486 2.58921 32.2038C2.58617 34.8463 3.16225 37.4574 4.27692 39.8534C7.52249 36.5778 15.1121 34.261 23.9601 34.261Z" fill="#0095D3"/>
<path d="M23.9601 34.2909C32.778 34.2909 40.3577 36.5778 43.6033 39.8334C44.7159 37.4579 45.2921 34.8668 45.291 32.2437C45.291 21.4984 35.734 12.4307 23.9601 12.4307C12.1861 12.4307 2.63914 21.4984 2.63914 32.2437C2.63608 34.867 3.21237 37.4586 4.32684 39.8334C7.56243 36.5778 15.1321 34.2909 23.9601 34.2909Z" fill="#0097D4"/>
<path d="M23.9601 34.3109C32.7581 34.3109 40.3177 36.5778 43.5433 39.8034C44.6545 37.4558 45.2309 34.8909 45.231 32.2937C45.231 21.6382 35.704 12.6205 23.9601 12.6205C12.2161 12.6205 2.68904 21.6082 2.68904 32.2937C2.68818 34.891 3.26465 37.4562 4.37674 39.8034C7.60234 36.5778 15.1521 34.3109 23.9601 34.3109Z" fill="#0098D5"/>
<path d="M23.9501 34.3309C32.7281 34.3309 40.2678 36.5778 43.4934 39.7734C44.5964 37.4482 45.1694 34.9071 45.1711 32.3336C45.1711 21.768 35.6641 12.8002 23.9501 12.8002C12.236 12.8002 2.74896 21.788 2.74896 32.3336C2.74834 34.9074 3.3215 37.449 4.4267 39.7734C7.64231 36.5778 15.172 34.3309 23.9501 34.3309Z" fill="#009AD5"/>
<path d="M23.9501 34.3509C32.6981 34.3509 40.2179 36.5878 43.4335 39.7535C44.5351 37.4491 45.1083 34.9278 45.1112 32.3736C45.1112 21.9078 35.6341 12.99 23.9501 12.99C12.266 12.99 2.79892 21.9078 2.79892 32.3736C2.79948 34.928 3.37277 37.4499 4.47662 39.7535C7.68225 36.5878 15.192 34.3509 23.9501 34.3509Z" fill="#009CD6"/>
<path d="M23.9501 34.3808C32.6782 34.3808 40.1779 36.5878 43.3836 39.7235C44.4773 37.4416 45.0471 34.944 45.0513 32.4135C45.0513 22.0476 35.5942 13.1697 23.9501 13.1697C12.3059 13.1697 2.88879 22.0476 2.88879 32.4135C2.89062 34.9454 3.46411 37.4442 4.5665 39.7235C7.7222 36.5878 15.212 34.3808 23.9501 34.3808Z" fill="#009ED7"/>
<path d="M23.9501 34.4008C32.6482 34.4008 40.128 36.5878 43.3237 39.6936C44.4215 37.4379 44.9918 34.9621 44.9914 32.4534C44.9914 22.1775 35.5642 13.3495 23.9501 13.3495C12.3359 13.3495 2.8888 22.1775 2.8888 32.4534C2.88592 34.9623 3.45636 37.4387 4.55654 39.6936C7.76217 36.5878 15.232 34.4008 23.9501 34.4008Z" fill="#00A0D8"/>
<path d="M23.9401 34.4208C32.6182 34.4208 40.0881 36.5878 43.2737 39.6736C44.3636 37.4369 44.9305 34.9816 44.9315 32.4934C44.9315 22.3173 35.5343 13.5193 23.9601 13.5193C12.3858 13.5193 2.98866 22.2973 2.98866 32.4934C2.98862 34.9817 3.55556 37.4372 4.64641 39.6736C7.8021 36.5878 15.2519 34.4208 23.9401 34.4208Z" fill="#00A1D9"/>
<path d="M23.9401 34.4507C32.5983 34.4507 40.0381 36.5978 43.2138 39.6436C44.3033 37.4317 44.8705 34.9991 44.8715 32.5333C44.8715 22.4571 35.4943 13.719 23.9001 13.719C12.306 13.719 2.92874 22.4571 2.92874 32.5333C2.93337 34.9987 3.50033 37.4305 4.58648 39.6436C7.88199 36.5978 15.2819 34.4507 23.9401 34.4507Z" fill="#00A3DA"/>
<path d="M23.9401 34.4707C32.5683 34.4707 39.9882 36.5978 43.1639 39.6137C44.2423 37.4404 44.8093 35.0493 44.8216 32.6232C44.8216 22.6368 35.4644 13.9587 23.9401 13.9587C12.4158 13.9587 3.06854 22.6368 3.06854 32.6232C3.07739 35.0486 3.64102 37.4397 4.71629 39.6137C7.88197 36.5978 15.3019 34.4707 23.9401 34.4707Z" fill="#00A5DB"/>
<path d="M23.9401 34.4907C32.5383 34.4907 39.9183 36.5978 43.1039 39.5937C44.1932 37.4244 44.7609 35.0307 44.7617 32.6032C44.7617 22.7167 35.4344 14.0785 23.9401 14.0785C12.4457 14.0785 3.11848 22.7167 3.11848 32.6032C3.11836 35.0296 3.68246 37.4228 4.76623 39.5937C7.88198 36.5978 15.3218 34.4907 23.9401 34.4907Z" fill="#00A7DC"/>
<path d="M23.9301 34.5206C32.5184 34.5206 39.9083 36.5978 43.054 39.5637C44.1336 37.4234 44.6978 35.0603 44.7018 32.6631C44.7018 22.8665 35.3945 14.2782 23.9301 14.2782C12.4657 14.2782 3.17841 22.8665 3.17841 32.6631C3.17887 35.0596 3.73971 37.4227 4.81616 39.5637C7.96187 36.5978 15.3418 34.5206 23.9301 34.5206Z" fill="#00A9DD"/>
<path d="M23.9301 34.5406C32.4884 34.5406 39.8584 36.6077 42.9941 39.5338C44.0736 37.4184 44.6381 35.078 44.6418 32.7031C44.6418 22.9963 35.3645 14.4579 23.9301 14.4579C12.4957 14.4579 3.22832 22.9963 3.22832 32.7031C3.23229 35.0767 3.79327 37.4164 4.8661 39.5338C8.00182 36.6077 15.3618 34.5406 23.9301 34.5406Z" fill="#00ABDE"/>
<path d="M23.9301 34.5606C32.4685 34.5606 39.8084 36.6078 42.9042 39.5538C43.9746 37.4569 44.5357 35.1373 44.542 32.783C44.542 23.1761 35.2946 14.6877 23.8901 14.6877C12.4857 14.6877 3.23831 23.1761 3.23831 32.783C3.25393 35.1246 3.81828 37.4298 4.88606 39.5138C8.05174 36.6078 15.3818 34.5606 23.9301 34.5606Z" fill="#00ADDE"/>
<path d="M23.9201 34.5805C32.4385 34.5805 39.7585 36.5778 42.8942 39.4839C43.9687 37.4135 44.5303 35.1155 44.532 32.783C44.532 23.2759 35.3046 14.8075 23.9301 14.8075C12.5556 14.8075 3.34816 23.256 3.34816 32.783C3.35024 35.1143 3.90827 37.4114 4.97594 39.4839C8.0917 36.6078 15.4017 34.5805 23.9201 34.5805Z" fill="#00AFDF"/>
<path d="M23.9201 34.6105C32.4085 34.6105 39.7186 36.6077 42.8343 39.4539C43.9006 37.406 44.4589 35.1318 44.4621 32.8229C44.4621 23.4057 35.2646 15.0072 23.9201 15.0072C12.5756 15.0072 3.38811 23.4057 3.38811 32.8229C3.3901 35.1319 3.94846 37.4064 5.01589 39.4539C8.13164 36.6077 15.4217 34.6105 23.9201 34.6105Z" fill="#00B1E0"/>
<path d="M23.9201 34.6305C32.3885 34.6305 39.6686 36.6277 42.7744 39.4339C43.8403 37.4074 44.3988 35.1526 44.4022 32.8629C44.4022 23.5456 35.2347 15.197 23.9201 15.197C12.6055 15.197 3.43802 23.5456 3.43802 32.8629C3.44018 35.1528 3.99881 37.4078 5.0658 39.4339C8.17157 36.6178 15.4417 34.6305 23.9201 34.6305Z" fill="#00B3E1"/>
<path d="M23.9201 34.6504C32.3586 34.6504 39.6287 36.6477 42.7245 39.404C43.7826 37.4 44.3378 35.1689 44.3423 32.9028C44.3423 23.6754 35.1947 15.3767 23.9201 15.3767C12.6455 15.3767 3.49794 23.6854 3.49794 32.9028C3.50236 35.1689 4.05759 37.4 5.11576 39.404C8.21154 36.6178 15.4616 34.6504 23.9201 34.6504Z" fill="#0DB5E2"/>
<path d="M23.9101 34.6804C32.3286 34.6804 39.5787 36.6178 42.6645 39.374C43.7219 37.3949 44.2774 35.1866 44.2824 32.9428C44.2824 23.8152 35.1648 15.5665 23.9101 15.5665C12.6555 15.5665 3.5479 23.8152 3.5479 32.9428C3.55281 35.1866 4.10832 37.3949 5.16569 39.374C8.25148 36.6178 15.4816 34.6804 23.9101 34.6804Z" fill="#19B7E3"/>
<path d="M23.9101 34.7004C32.3087 34.7004 39.5288 36.6178 42.6146 39.354C43.6693 37.3991 44.225 35.214 44.2324 32.9927C44.2324 24.005 35.1348 15.7462 23.9101 15.7462C12.6854 15.7462 3.59781 23.955 3.59781 32.9927C3.60394 35.2141 4.15972 37.3995 5.2156 39.354C8.2914 36.6178 15.5016 34.7004 23.9101 34.7004Z" fill="#21B9E4"/>
<path d="M23.9101 34.7204C32.2787 34.7204 39.4889 36.6278 42.5647 39.3241C43.611 37.3915 44.1633 35.2303 44.1725 33.0327C44.1725 24.0449 35.0949 15.936 23.9101 15.936C12.7254 15.936 3.65773 24.0849 3.65773 33.0327C3.66221 35.2296 4.21119 37.3912 5.25556 39.3241C8.33136 36.6278 15.5216 34.7204 23.9101 34.7204Z" fill="#28BBE5"/>
<path d="M23.9101 34.7703C32.2687 34.7703 39.4689 36.6677 42.5347 39.344C43.582 37.4263 44.1346 35.2777 44.1425 33.0926C44.1425 24.2147 35.0849 16.1157 23.9101 16.1157C12.7353 16.1157 3.68768 24.2347 3.68768 33.0926C3.69083 35.277 4.24009 37.426 5.28551 39.344C8.35133 36.6677 15.5415 34.7703 23.9101 34.7703Z" fill="#37BDE6"/>
<path d="M23.9101 34.8302C32.2587 34.8302 39.4489 36.7076 42.5048 39.374C43.5536 37.4677 44.1065 35.3283 44.1126 33.1525C44.1126 24.3345 35.0649 16.2655 23.9101 16.2655C12.7553 16.2655 3.70767 24.3345 3.70767 33.1525C3.7183 35.3264 4.26726 37.4639 5.3055 39.374C8.37132 36.7076 15.5515 34.8302 23.9101 34.8302Z" fill="#43BFE6"/>
<path d="M23.9101 34.9201C32.2487 34.9201 39.419 36.7875 42.4848 39.4339C43.526 37.5431 44.0755 35.4209 44.0826 33.2623C44.0826 24.4943 35.0949 16.4752 23.9101 16.4752C12.7254 16.4752 3.73764 24.4643 3.73764 33.2623C3.7435 35.4211 4.29301 37.5436 5.33547 39.4339C8.3913 36.7476 15.5615 34.9201 23.9101 34.9201Z" fill="#4DC0E7"/>
<path d="M23.9101 34.92C32.2388 34.92 39.399 36.7775 42.4548 39.4039C43.5003 37.5288 44.0535 35.4192 44.0627 33.2723C44.0627 24.5642 35.0749 16.595 23.9101 16.595C12.7453 16.595 3.76759 24.5841 3.76759 33.2723C3.77495 35.4169 4.32093 37.5253 5.35542 39.4039C8.41126 36.7875 15.5715 34.92 23.9101 34.92Z" fill="#56C2E8"/>
<path d="M23.9101 34.99C32.2288 34.99 39.379 36.8275 42.4349 39.4339C43.4711 37.5736 44.0208 35.4817 44.0327 33.3522C44.0327 24.704 35.0449 16.7748 23.9101 16.7748C12.7753 16.7748 3.79755 24.704 3.79755 33.3522C3.8003 35.4816 4.34685 37.575 5.38538 39.4339C8.43122 36.8275 15.5815 34.99 23.9101 34.99Z" fill="#5EC4E8"/>
<path d="M23.9101 35.0399C32.2088 35.0399 39.3591 36.8674 42.4049 39.4639C43.4453 37.6161 43.9954 35.5327 44.0027 33.4121C44.0027 24.8238 35.015 16.9446 23.9101 16.9446C12.8053 16.9446 3.81752 24.8238 3.81752 33.4121C3.82624 35.5312 4.37256 37.6135 5.40535 39.4639C8.46118 36.9173 15.5915 35.0399 23.9101 35.0399Z" fill="#65C6E9"/>
<path d="M23.9101 35.0898C32.1988 35.0898 39.3391 36.9074 42.3849 39.4839C43.414 37.6537 43.9605 35.5917 43.9728 33.492C43.9728 24.9637 34.985 17.1343 23.9101 17.1343C12.8352 17.1343 3.88742 24.9337 3.88742 33.4721C3.89841 35.5719 4.44492 37.6342 5.47525 39.4639C8.48115 36.9174 15.6114 35.0898 23.9101 35.0898Z" fill="#6DC7EA"/>
<path d="M23.9101 35.1398C32.1888 35.1398 39.3191 36.9473 42.3549 39.5038C43.392 37.6768 43.9389 35.6127 43.9428 33.512C43.9428 25.0335 34.955 17.2542 23.9101 17.2542C12.8652 17.2542 3.88742 25.0635 3.88742 33.5419C3.88777 35.6419 4.43131 37.706 5.46526 39.5338C8.50112 36.9173 15.6214 35.1398 23.9101 35.1398Z" fill="#74C9EA"/>
<path d="M23.9101 35.1997C32.1788 35.1997 39.2991 36.9872 42.335 39.5337C43.3612 37.7241 43.9078 35.6822 43.9228 33.6018C43.9228 25.1833 34.9351 17.4539 23.9501 17.4539C12.965 17.4539 3.97729 25.1933 3.97729 33.6018C3.98299 35.6821 4.52655 37.7256 5.55516 39.5337C8.52112 36.9872 15.6314 35.1997 23.9101 35.1997Z" fill="#7ACBEB"/>
<path d="M23.9101 35.2496C32.1688 35.2496 39.2792 37.0272 42.305 39.5538C43.3352 37.7639 43.8823 35.7369 43.8929 33.6718C43.8929 25.3132 34.9051 17.6237 23.9201 17.6237C12.9351 17.6237 3.94734 25.3132 3.94734 33.6718C3.95801 35.7356 4.50153 37.7617 5.52521 39.5538C8.54109 37.0272 15.6414 35.2496 23.9101 35.2496Z" fill="#81CDEC"/>
<path d="M23.9101 35.2996C32.1589 35.2996 39.2592 37.0671 42.2851 39.5737C43.3076 37.7957 43.8513 35.7827 43.8629 33.7317C43.8629 25.433 34.9251 17.7535 23.8902 17.7535C12.8552 17.7535 3.91739 25.403 3.91739 33.7317C3.92306 35.7836 4.46712 37.798 5.49522 39.5737C8.56104 37.0671 15.6514 35.2996 23.9101 35.2996Z" fill="#87CFEC"/>
<path d="M23.9101 35.3595C32.1489 35.3595 39.2292 37.1071 42.2551 39.5937C43.2782 37.8304 43.8222 35.8301 43.8329 33.7916C43.8329 25.5528 34.9051 17.9532 23.9101 17.9532C12.9151 17.9532 3.98729 25.5528 3.98729 33.7916C3.99457 35.8293 4.53511 37.8296 5.55516 39.5937C8.58103 37.1071 15.6614 35.3595 23.9101 35.3595Z" fill="#8ED1ED"/>
<path d="M23.9101 35.4094C32.1389 35.4094 39.2093 37.1471 42.2351 39.6237C43.2554 37.8738 43.7994 35.8871 43.813 33.8615C43.813 25.6727 34.8951 18.123 23.9101 18.123C12.9251 18.123 4.01726 25.6827 4.01726 33.8615C4.02593 35.8865 4.56661 37.8735 5.58513 39.6237C8.60101 37.1471 15.6813 35.4094 23.9101 35.4094Z" fill="#94D3EE"/>
<path d="M23.9101 35.4593C32.1289 35.4593 39.1893 37.1869 42.2052 39.6436C43.244 37.9136 43.8057 35.9392 43.8329 33.9214C43.8329 25.7925 34.9251 18.2927 23.9601 18.2927C12.995 18.2927 4.08716 25.8025 4.08716 33.9214C4.09578 35.9337 4.63668 37.9079 5.655 39.6436C8.62095 37.1869 15.6913 35.4593 23.9101 35.4593Z" fill="#9AD5EF"/>
<path d="M23.9101 35.5093C32.1189 35.5093 39.1693 37.2269 42.1752 39.6636C43.1947 37.9462 43.7393 35.9886 43.7531 33.9914C43.7531 25.9224 34.8652 18.4625 23.9101 18.4625C12.955 18.4625 4.06717 25.9224 4.06717 33.9914C4.07602 35.9879 4.61725 37.9459 5.63504 39.6636C8.64094 37.2269 15.7013 35.5093 23.9101 35.5093Z" fill="#A0D7F0"/>
<path d="M23.9101 35.5692C32.1089 35.5692 39.1494 37.2669 42.1553 39.6836C43.168 37.9783 43.7091 36.0345 43.7231 34.0512C43.7231 26.0621 34.8452 18.6323 23.9101 18.6323C12.975 18.6323 4.09714 26.0422 4.09714 34.0512C4.1028 36.0343 4.64082 37.9795 5.65501 39.6836C8.66091 37.2669 15.7113 35.5692 23.9101 35.5692Z" fill="#A6D9F0"/>
<path d="M23.9101 35.6191C32.0989 35.6191 39.1294 37.3068 42.1253 39.7136C43.1454 38.0219 43.6905 36.0865 43.7031 34.1112C43.7031 26.1221 34.8352 18.8021 23.9101 18.8021C12.985 18.8021 4.12709 26.172 4.12709 34.1112C4.13371 36.0847 4.67186 38.0199 5.68496 39.7136C8.68088 37.3068 15.7213 35.6191 23.9101 35.6191Z" fill="#ACDCF1"/>
<path d="M23.9101 35.669C32.079 35.669 39.1094 37.3468 42.1053 39.7335C43.116 38.0566 43.6575 36.1389 43.6732 34.1811C43.6732 26.2818 34.8152 18.9718 23.9101 18.9718C13.005 18.9718 4.15704 26.2918 4.15704 34.1811C4.16567 36.1372 4.70033 38.055 5.70495 39.7335C8.71085 37.3468 15.7313 35.669 23.9101 35.669Z" fill="#B2DEF2"/>
<path d="M23.9101 35.719C32.069 35.719 39.0894 37.3867 42.0753 39.7135C43.086 38.0512 43.6278 36.1464 43.6432 34.201C43.6432 26.3717 34.7953 19.1016 23.9101 19.1016C13.0249 19.1016 4.17703 26.3717 4.17703 34.201C4.1829 36.1463 4.7217 38.0529 5.73491 39.7135C8.73082 37.3867 15.7512 35.719 23.9101 35.719Z" fill="#B8E0F3"/>
<path d="M23.9101 35.7789C32.059 35.7789 39.0695 37.4267 42.0554 39.7735C43.0597 38.1236 43.5981 36.2324 43.6133 34.3009C43.6133 26.5215 34.7853 19.3214 23.9101 19.3214C13.0349 19.3214 4.207 26.5415 4.207 34.3009C4.21558 36.2333 4.75444 38.1263 5.76487 39.7735C8.7508 37.4267 15.7612 35.7789 23.9101 35.7789Z" fill="#BDE2F4"/>
<path d="M23.9101 35.8288C32.049 35.8288 39.0495 37.4666 42.0254 39.8234C43.0307 38.1886 43.5695 36.3099 43.5833 34.3908C43.5833 26.6713 34.7653 19.4911 23.9101 19.4911C13.0549 19.4911 4.23695 26.6813 4.23695 34.3908C4.24574 36.3092 4.78116 38.1884 5.78483 39.8234C8.77076 37.4666 15.7712 35.8288 23.9101 35.8288Z" fill="#C3E5F5"/>
<path d="M23.9101 35.9187C32.039 35.9187 39.0195 37.5465 42.0055 39.8633C43.0061 38.2412 43.5448 36.3765 43.5633 34.4707C43.5633 26.8111 34.7553 19.6808 23.9101 19.6808C13.0649 19.6808 4.26691 26.8211 4.26691 34.4707C4.27229 36.3757 4.80456 38.242 5.80482 39.8633C8.79075 37.5065 15.7812 35.9187 23.9101 35.9187Z" fill="#C9E7F5"/>
<path d="M23.9101 35.9187C32.029 35.9187 38.9996 37.5265 41.9755 39.8234C42.9754 38.2193 43.5144 36.3708 43.5334 34.4807C43.5334 26.871 34.7353 19.7907 23.9101 19.7907C13.0849 19.7907 4.28688 26.931 4.28688 34.5006C4.29612 36.3908 4.83217 38.241 5.83479 39.8434C8.81073 37.5465 15.7912 35.9187 23.9101 35.9187Z" fill="#CEE9F6"/>
<path d="M23.9101 35.9887C32.019 35.9887 38.9796 37.5865 41.9555 39.8734C42.9509 38.2788 43.4865 36.4403 43.5034 34.5606C43.5034 27.0209 34.7254 19.9805 23.9101 19.9805C13.0949 19.9805 4.31683 27.0209 4.31683 34.5606C4.32538 36.4568 4.86883 38.3121 5.8847 39.9133C8.88062 37.5865 15.8012 35.9887 23.9101 35.9887Z" fill="#D4ECF7"/>
<path d="M23.9101 36.0385C32.0091 36.0385 38.9596 37.6264 41.8856 39.8933C42.8827 38.3179 43.4189 36.4948 43.4335 34.6305C43.4335 27.1407 34.6655 20.1502 23.8702 20.1502C13.0749 20.1502 4.30687 27.1407 4.30687 34.6305C4.32233 36.5052 4.86946 38.3371 5.8847 39.9132C8.88062 37.6264 15.8711 36.0385 23.9101 36.0385Z" fill="#DAEEF8"/>
<path d="M23.9101 36.0885C31.9991 36.0885 38.9396 37.6663 41.8856 39.9133C42.883 38.3522 43.4227 36.5428 43.4435 34.6904C43.4435 27.2605 34.6754 20.32 23.9001 20.32C13.1248 20.32 4.36678 27.3105 4.36678 34.6904C4.37396 36.5391 4.89987 38.3487 5.88469 39.9133C8.88061 37.6663 15.8711 36.0885 23.9101 36.0885Z" fill="#DFF1F9"/>
<path d="M23.9101 36.1484C31.9891 36.1484 38.8897 37.7063 41.8856 39.9332C42.8807 38.3865 43.4174 36.5895 43.4335 34.7503C43.4335 27.3803 34.6854 20.4897 23.9201 20.4897C13.1548 20.4897 4.40671 27.3903 4.40671 34.7503C4.41431 36.5893 4.94795 38.3877 5.94462 39.9332C8.88062 37.7063 15.8711 36.1484 23.9101 36.1484Z" fill="#E5F3FA"/>
<path d="M23.9101 36.1984C31.9791 36.1984 38.8897 37.7462 41.8856 39.9632C42.8775 38.4298 43.4142 36.6464 43.4335 34.8202C43.4335 27.5102 34.6954 20.6595 23.9501 20.6595C13.2047 20.6595 4.46663 27.5102 4.46663 34.8202C4.47883 36.6446 5.00867 38.4281 5.99454 39.9632C8.88061 37.7462 15.8711 36.1984 23.9101 36.1984Z" fill="#EBF6FB"/>
<path d="M23.9101 36.2483C31.9691 36.2483 38.8897 37.7862 41.8257 39.9832C42.8108 38.4619 43.3441 36.6924 43.3636 34.8801C43.3636 27.63 34.6455 20.8293 23.9101 20.8293C13.1747 20.8293 4.45665 27.63 4.45665 34.9201C4.4676 36.7322 4.99785 38.5032 5.98456 40.0231C8.93055 37.7862 15.8711 36.2483 23.9101 36.2483Z" fill="#F1F8FD"/>
<path d="M23.9101 36.2982C31.9591 36.2982 38.8897 37.8261 41.7957 40.0031C42.789 38.4931 43.3232 36.7275 43.3336 34.9201C43.3336 27.7199 34.6255 20.9391 23.9101 20.9391C13.1947 20.9391 4.48662 27.6999 4.48662 34.9201C4.49572 36.7154 5.02278 38.47 6.00454 39.9732C8.96051 37.8261 15.8711 36.2982 23.9101 36.2982Z" fill="#F7FBFE"/>
<path d="M23.9101 36.3581C31.8992 36.3581 38.8298 37.8661 41.7758 40.0331C42.7531 38.549 43.2866 36.8167 43.3137 35.0399C43.3137 27.8997 34.6155 21.1988 23.9101 21.1988C13.2047 21.1988 4.50658 27.9096 4.50658 35.0399C4.52507 36.8166 5.05557 38.5503 6.03449 40.0331C8.98047 37.916 15.8711 36.3581 23.9101 36.3581Z" fill="white"/>
<path d="M23.9101 29.2278C17.4466 29.1682 11.0234 30.2501 4.93599 32.4234C6.56622 36.0848 9.22277 39.1951 12.5841 41.3779C15.9454 43.5606 19.8673 44.7224 23.8752 44.7224C27.883 44.7224 31.805 43.5606 35.1663 41.3779C38.5276 39.1951 41.1841 36.0848 42.8144 32.4234C36.7498 30.2553 30.3504 29.1736 23.9101 29.2278Z" fill="#0083CA"/>
</g>
</g>
<defs>
<clipPath id="clip0_1_14">
<rect width="44" height="43.5306" fill="white" transform="translate(2 2.23462)"/>
</clipPath>
</defs>
</svg>
