<svg width="48" height="48" viewBox="0 0 48 48" fill="none" xmlns="http://www.w3.org/2000/svg">
<g clip-path="url(#clip0_1_178)">
<path d="M41.7958 27.4258C39.8568 32.2546 36.5941 33.625 36.5941 33.625C46.1864 23.9114 40.3229 12.7063 40.3229 12.7063C38.9059 10.1987 40.7051 9.10804 40.7051 9.10804C36.5847 10.1335 37.9085 13.5453 37.9085 13.5453C39.5272 17.127 39.8566 21.1585 38.8407 24.9555L37.489 24.2004C37.489 24.2004 40.7051 11.5318 27.589 7.08514V4.69871H24.7924V20.4063L37.6661 27.7428C37.4237 28.2182 37.1814 28.675 36.9203 29.0851L23.9907 21.6275L11.0144 29.0851C10.7434 28.6505 10.4945 28.2025 10.2686 27.7428L23.1424 20.4063V4.66144H20.3458V7.04788C7.22966 11.4945 10.4458 24.1631 10.4458 24.1631L9.08475 24.9182C8.07423 21.1208 8.40345 17.0911 10.0169 13.508C10.0169 13.508 11.3034 10.0962 7.22034 9.07074C7.22034 9.07074 9.0195 10.1614 7.60255 12.6691C7.60255 12.6691 1.74831 23.8555 11.3314 33.5877C11.3314 33.5877 8.07797 32.2173 6.12966 27.3885C5.73899 26.6563 5.11517 26.0753 4.35702 25.7376C3.59887 25.3999 2.74972 25.3248 1.94407 25.5241C2.41534 25.8236 2.82271 26.2133 3.14269 26.6709C3.46267 27.1285 3.68894 27.6448 3.80847 28.1902C3.80847 28.1902 6.60509 37.0462 17.3348 38.3979V43.2826H22.6203V36.0767C18.8403 35.8296 15.3026 34.1292 12.7483 31.3318L14.072 30.558C16.7946 33.0044 20.2708 34.4481 23.9254 34.6504H24.028C27.6814 34.443 31.1559 33 33.8814 30.558L35.2051 31.3318C32.6508 34.1292 29.1131 35.8296 25.333 36.0767V43.2826H30.6093V38.3979C41.3576 37.0462 44.1449 28.1902 44.1449 28.1902C44.2645 27.6448 44.4907 27.1285 44.8107 26.6709C45.1307 26.2133 45.5381 25.8236 46.0093 25.5241C45.1956 25.3326 44.3414 25.4153 43.5795 25.7591C42.8175 26.103 42.1905 26.6889 41.7958 27.4258ZM34.9254 22.7648L27.6542 18.7191V10.0309C27.6542 10.0309 36.4076 12.3894 34.9254 22.7462V22.7648ZM20.2992 10.0029V18.6911L13.0373 22.7648C11.5831 12.3894 20.2992 10.0029 20.2992 10.0029ZM24.028 24.8436L31.2619 29.0851H31.1966C29.2092 30.8383 26.6502 31.8057 24 31.8057C21.3498 31.8057 18.7908 30.8383 16.8034 29.0851H16.7381L24.028 24.8436Z" fill="#0056A7"/>
</g>
<defs>
<clipPath id="clip0_1_178">
<rect width="44" height="38.6771" fill="white" transform="translate(2 4.66144)"/>
</clipPath>
</defs>
</svg>
