<svg width="48" height="48" viewBox="0 0 48 48" fill="none" xmlns="http://www.w3.org/2000/svg">
<g clip-path="url(#clip0_1_122)">
<path d="M24.0084 8.45636C10.7472 8.45636 2.00562 15.4159 2.00562 24.0056C2.00562 32.5954 10.7415 39.5492 24.0084 39.5492C37.2753 39.5492 46.0056 32.5841 46.0056 24.0056C46.0056 15.4271 37.2641 8.45636 24.0084 8.45636Z" fill="white"/>
<path d="M27.9435 29.8127C31.7212 29.1549 44.4765 26.5297 42.9025 19.2554C42.3404 16.6413 39.6532 13.7687 35.5945 11.7731C31.9227 10.1955 27.9594 9.4101 23.9635 9.46822C11.6579 9.46822 3.0962 15.978 3.0962 24.0056C3.0962 29.5934 7.25054 34.4448 13.9346 36.8734C15.3343 33.1406 20.9784 31.0157 27.9435 29.8127Z" fill="#007DC5"/>
<path d="M24.0084 32.3874C18.4824 33.0789 15.9527 34.8609 14.3281 37.0252C17.4218 38.0532 20.6642 38.5623 23.9241 38.5318C36.2353 38.5318 44.797 32.0276 44.797 24.0057C44.7969 23.3021 44.7311 22.6001 44.6002 21.9088C44.2124 31.3306 30.0685 31.6341 24.0084 32.3874Z" fill="url(#paint0_linear_1_122)"/>
<path d="M12.0682 16.4166H7.94201L7.98697 16.5346C8.15096 17.1786 8.20607 17.8456 8.15 18.5078C8.15 18.6764 8.15 28.0645 8.15 28.0645H8.22869C8.22869 28.0645 10.1119 28.1319 11.8771 28.1319C15.5649 28.1319 18.0608 25.6359 18.0608 21.9145C18.0383 18.564 15.6941 16.4166 12.0682 16.4166ZM9.91516 17.4566C10.1513 17.4566 10.8821 17.3835 11.4049 17.3835C14.5586 17.3835 16.0258 18.9125 16.0258 22.1899C16.0258 25.5628 14.7216 27.2493 12.0401 27.2493C10.0726 27.2493 9.91516 27.1538 9.91516 25.9901V17.4566Z" fill="white"/>
<path d="M29.1184 27.9576C29.0566 27.2717 29.0285 26.8333 29.0285 26.4116V22.336H27.0722L27.134 22.4653C27.29 22.8619 27.3571 23.2879 27.3308 23.7133C27.3308 23.7414 27.3308 26.5241 27.2633 27.2043C26.7648 27.3136 26.2559 27.3683 25.7455 27.3673C22.6311 27.3673 21.0515 25.5796 21.0515 22.0605C21.0515 19.3734 22.8279 17.3665 25.3745 17.181C26.6043 17.0529 27.8363 17.4032 28.8149 18.1592L28.9554 18.2829V16.6357H28.8879C28.0043 16.4446 27.1046 16.3373 26.2008 16.3153C21.7036 16.3153 19.0446 18.6707 19.0446 22.6227C19.0446 26.8276 22.3107 28.3286 25.3689 28.3286C26.5994 28.3325 27.8285 28.2423 29.0454 28.0588H29.1241L29.1184 27.9576Z" fill="white"/>
<path d="M36.1173 21.6559C36.733 21.5073 37.2823 21.1594 37.6798 20.6663C38.0774 20.1732 38.3008 19.5626 38.3153 18.9294C38.3153 17.3554 36.8931 16.4166 34.5151 16.4166H30.9848V16.5177C31.0744 17.026 31.1102 17.5423 31.0916 18.0581V28.1375H31.1759C31.1759 28.1375 32.5645 28.1094 34.2678 28.1094C37.236 28.1094 38.9393 26.8221 38.9393 24.5735C38.9618 23.1849 37.8094 22.0213 36.1173 21.6559ZM32.8736 22.218H33.7844C35.8868 22.218 36.9549 23.0444 36.9549 24.6746C36.9549 26.3049 36.0386 27.2268 34.1441 27.2268C33.2334 27.2268 32.8736 26.8952 32.8736 26.0463V22.218ZM32.8736 17.3216H34.0261C35.8418 17.3216 36.6176 17.8838 36.6176 19.1599C36.6176 20.6215 35.6676 21.3073 33.6213 21.3073H32.868L32.8736 17.3216Z" fill="white"/>
</g>
<defs>
<linearGradient id="paint0_linear_1_122" x1="13.8278" y1="30.2175" x2="45.05" y2="30.2175" gradientUnits="userSpaceOnUse">
<stop offset="0.1" stop-color="#007DC5"/>
<stop offset="0.23" stop-color="#0083CB"/>
<stop offset="0.4" stop-color="#0095DA"/>
<stop offset="0.75" stop-color="#00B49D"/>
<stop offset="1" stop-color="#72BF44"/>
</linearGradient>
<clipPath id="clip0_1_122">
<rect width="44" height="31.0873" fill="white" transform="translate(2 8.45636)"/>
</clipPath>
</defs>
</svg>
